<svg xmlns="http://www.w3.org/2000/svg" viewBox="0 0 1200 900">
<defs><linearGradient id="wall" x1="0" y1="0" x2="0" y2="1"><stop offset="0" stop-color="#4a2c22"/><stop offset="1" stop-color="#8a5a3a"/></linearGradient><linearGradient id="kfloor" x1="0" y1="0" x2="0" y2="1"><stop offset="0" stop-color="#a47a54"/><stop offset="1" stop-color="#6b4a34"/></linearGradient><radialGradient id="glow" cx="0.5" cy="0.5" r="0.5"><stop offset="0" stop-color="#ffcf6a" stop-opacity="0.75"/><stop offset="1" stop-color="#ffcf6a" stop-opacity="0"/></radialGradient><linearGradient id="ts" x1="0" y1="0" x2="0" y2="1"><stop offset="0" stop-color="#a9b78a"/><stop offset="1" stop-color="#73875f"/></linearGradient><linearGradient id="tunic" x1="0" y1="0" x2="0" y2="1"><stop offset="0" stop-color="#eb8f3f"/><stop offset="1" stop-color="#c0622a"/></linearGradient><linearGradient id="twist" x1="0" y1="0" x2="1" y2="0"><stop offset="0" stop-color="#6b4526"/><stop offset="0.45" stop-color="#b98550"/><stop offset="1" stop-color="#7b4f28"/></linearGradient></defs>
<rect width="1200" height="900" fill="url(#wall)"/><path d="M0 0 L1200 0 L1200 110 C1100 60 1040 140 960 100 C880 66 820 120 720 92 C620 66 560 130 460 96 C360 60 300 124 200 104 C120 86 60 130 0 104 Z" fill="#33201a"/><path d="M0 104 C44 240 20 420 0 580 Z" fill="#33201a"/><path d="M1200 110 C1150 260 1180 420 1200 580 Z" fill="#33201a"/><path d="M230 700 L230 390 C230 100 970 100 970 390 L970 700 Z" fill="#3d251c"/><path d="M350 700 L350 420 C350 200 850 200 850 420 L850 700 Z" fill="#2c1a14"/><path d="M470 700 L470 470 C470 330 730 330 730 470 L730 700 Z" fill="#22140f"/><ellipse cx="600" cy="560" rx="230" ry="240" fill="url(#glow)" opacity="0.7"/><path d="M548 690 L548 540 C548 470 652 470 652 540 L652 690 Z" fill="#ffcf6a" opacity="0.75"/><ellipse cx="170" cy="470" rx="230" ry="230" fill="url(#glow)" opacity="0.7"/><path d="M990 330 C1030 312 1076 320 1096 346 C1056 338 1022 340 990 330 Z M60 640 C100 626 140 632 160 652 C124 648 92 648 60 640 Z" fill="#a06a48" opacity="0.5"/><path d="M0 690 C300 672 900 672 1200 690 L1200 900 L0 900 Z" fill="url(#kfloor)"/><path d="M536 680 L664 680 L900 900 L300 900 Z" fill="#b0483a"/><path d="M560 680 L640 680 L810 900 L390 900 Z" fill="#d9763a"/><path d="M582 680 L618 680 L700 900 L500 900 Z" fill="#b0483a"/><path d="M60 850 C130 842 200 844 250 852 M950 846 C1010 838 1080 840 1140 850" fill="none" stroke="#5d3f2c" stroke-width="5" stroke-linecap="round" stroke-linejoin="round" opacity="0.6"/><g transform="translate(-60,110)"><rect x="130" y="400" width="150" height="18" rx="6" fill="#7b4f28"/><path d="M150 418 L150 446 M260 418 L260 446" stroke="#5d3a1c" stroke-width="10" stroke-linecap="round"/><rect x="182" y="320" width="40" height="80" rx="8" fill="#f3ead2"/><ellipse cx="202" cy="400" rx="34" ry="8" fill="#c99a5f"/><path d="M202 322 C176 318 150 300 120 300 C150 286 190 290 210 310 Z" fill="#f28a2a"/><path d="M202 320 C186 316 170 308 154 306 C172 300 194 302 206 312 Z" fill="#ffe58a"/></g>
<path d="M0 150 C300 214 800 214 1200 130" fill="none" stroke="#d9c39a" stroke-width="4" stroke-linecap="round" stroke-linejoin="round"/><g data-anim="sway"><g transform="translate(96,167) rotate(22)"><rect x="-4" y="-10" width="8" height="20" rx="3" fill="#b98550"/><path d="M-15 4 L15 4 L15 58 C16 72 42 72 46 86 C48 100 20 102 0 98 C-12 94 -15 82 -15 68 Z" fill="#fffaf0"/><path d="M-15 16 L15 16 L15 28 L-15 28 Z M-15 40 L15 40 L15 52 L-15 52 Z" fill="#e2533a"/></g>
<g transform="translate(206,181) rotate(14)"><rect x="-34" y="-10" width="8" height="20" rx="3" fill="#b98550"/><rect x="26" y="-10" width="8" height="20" rx="3" fill="#b98550"/><path d="M-40 4 L40 4 L66 30 L48 46 L36 34 L36 92 L-36 92 L-36 34 L-48 46 L-66 30 Z" fill="#7fb4c9"/><rect x="-20" y="50" width="24" height="22" rx="4" fill="#e3c26a"/></g>
</g>
<g transform="translate(1040,159) rotate(-30)"><rect x="-4" y="-10" width="8" height="20" rx="3" fill="#b98550"/><path d="M-15 4 L15 4 L15 58 C16 72 42 72 46 86 C48 100 20 102 0 98 C-12 94 -15 82 -15 68 Z" fill="#fffaf0"/><path d="M-15 16 L15 16 L15 28 L-15 28 Z M-15 40 L15 40 L15 52 L-15 52 Z" fill="#7fbf5a"/></g>
<rect x="884" y="168" width="8" height="20" rx="3" fill="#b98550"/><rect x="996" y="156" width="8" height="20" rx="3" fill="#b98550"/><path d="M900 200 L906 216 M940 196 L940 214 M980 190 L974 206" fill="none" stroke="#ffffff" stroke-width="5" stroke-linecap="round" stroke-linejoin="round" opacity="0.5"/><path d="M90 560 C170 520 280 530 360 580 M840 590 C920 630 1040 630 1120 580 M330 250 C380 226 440 228 480 248 M700 250 C760 222 830 226 880 256" fill="none" stroke="#ffffff" stroke-width="7" stroke-linecap="round" stroke-linejoin="round" opacity="0.35"/><g transform="translate(214,690) rotate(-24)"><g data-anim="float" data-tap="spin"><ellipse cx="0" cy="0" rx="124" ry="42" fill="#b0483a"/><ellipse cx="0" cy="0" rx="100" ry="31" fill="#d9763a"/><ellipse cx="0" cy="0" rx="76" ry="21" fill="#b0483a"/><path d="M-124 0 L-140 -4 M-122 10 L-138 12 M124 0 L140 4 M122 -10 L138 -12" fill="none" stroke="#b0483a" stroke-width="5" stroke-linecap="round" stroke-linejoin="round"/></g>
</g>
<g transform="translate(82,346) scale(0.9)"><g data-anim="sway" data-tap="wiggle"><path d="M544 494 L276 110 L768 110 L656 494 Z" fill="url(#twist)"/><ellipse cx="598" cy="482" rx="60" ry="22" fill="#7b4f28"/><ellipse cx="590" cy="436" rx="86" ry="30" fill="#a9713f"/><ellipse cx="578" cy="382" rx="114" ry="36" fill="#8a5a33"/><ellipse cx="566" cy="322" rx="146" ry="42" fill="#b98550"/><ellipse cx="552" cy="256" rx="180" ry="48" fill="#8a5a33"/><ellipse cx="538" cy="184" rx="216" ry="54" fill="#a9713f"/><ellipse cx="522" cy="110" rx="250" ry="58" fill="#8a5a33"/><ellipse cx="522" cy="100" rx="214" ry="40" fill="#5d3a1c"/><path d="M360 100 C420 70 620 70 690 100 C620 120 440 122 400 104 C460 90 580 92 620 100" fill="none" stroke="#d1a569" stroke-width="8" stroke-linecap="round" opacity="0.8"/><path d="M350 200 C440 232 620 232 720 200 M410 270 C480 296 620 296 700 268 M450 334 C510 354 620 354 680 332 M490 392 C540 406 620 406 664 392 M520 444 C560 454 620 454 650 444" fill="none" stroke="#e3bd86" stroke-width="8" stroke-linecap="round" opacity="0.6"/><path d="M300 130 C380 164 660 166 744 130" fill="none" stroke="#e3bd86" stroke-width="9" stroke-linecap="round" opacity="0.6"/></g>
</g>
<path d="M362 620 C390 620 398 652 374 660 C350 666 334 644 344 624 C356 600 392 598 408 620" fill="none" stroke="#e3bd86" stroke-width="10" stroke-linecap="round" stroke-linejoin="round"/><path d="M860 760 C888 760 896 792 872 800 C848 806 832 784 842 764 M300 440 C322 440 328 464 310 470 C292 474 282 458 288 444" fill="none" stroke="#e3bd86" stroke-width="9" stroke-linecap="round" stroke-linejoin="round"/><g transform="translate(548,446) rotate(-7) scale(0.8)"><g data-anim="wiggle" data-tap="jump"><path d="M-70 -180 C-150 -262 -206 -190 -160 -144 C-132 -120 -92 -134 -72 -156 Z" fill="#8e9f72"/><path d="M70 -180 C150 -262 206 -190 160 -144 C132 -120 92 -134 72 -156 Z" fill="#8e9f72"/><path d="M-90 -180 C-140 -226 -174 -186 -148 -158 C-130 -144 -106 -150 -90 -162 Z" fill="#c9ad90"/><path d="M90 -180 C140 -226 174 -186 148 -158 C130 -144 106 -150 90 -162 Z" fill="#c9ad90"/><ellipse cx="0" cy="-66" rx="84" ry="74" fill="url(#tunic)"/><rect x="20" y="-60" width="30" height="28" rx="5" fill="#ffd24a"/><path d="M-58 -40 C-70 -52 -78 -46 -74 -34 C-68 -28 -60 -30 -58 -40 Z" fill="#ffd24a"/><ellipse cx="-4" cy="-44" rx="58" ry="36" fill="#ffd24a"/><circle cx="62" cy="-70" r="27" fill="#ffd24a"/><path d="M84 -78 C104 -84 112 -74 106 -68 L90 -66 L106 -60 C102 -52 90 -52 84 -60 Z" fill="#f28a2a"/><circle cx="70" cy="-78" r="9" fill="#ffffff"/><circle cx="72" cy="-78" r="4" fill="#2b1d14"/><path d="M-28 -40 C-16 -28 4 -28 12 -40" fill="none" stroke="#f0b62a" stroke-width="5" stroke-linecap="round" stroke-linejoin="round"/><path d="M-66 -106 C-108 -84 -92 -44 -44 -34 M66 -106 C106 -100 104 -52 44 -30" fill="none" stroke="#8e9f72" stroke-width="30" stroke-linecap="round" stroke-linejoin="round"/><circle cx="-40" cy="-34" r="21" fill="#8e9f72"/><circle cx="40" cy="-30" r="21" fill="#8e9f72"/><ellipse cx="0" cy="-180" rx="94" ry="80" fill="url(#ts)"/><path d="M-14 -252 C-34 -270 -58 -274 -72 -262 C-54 -266 -46 -258 -40 -250 C-56 -288 -30 -300 -18 -276 C-18 -304 6 -306 6 -278 C18 -292 32 -280 22 -252 Z" fill="#c9622b"/><ellipse cx="-62" cy="-156" rx="20" ry="12" fill="#e79a8a" opacity="0.7"/><ellipse cx="62" cy="-156" rx="20" ry="12" fill="#e79a8a" opacity="0.7"/><g data-anim="blink"><circle cx="-40" cy="-200" r="30" fill="#ffffff"/><circle cx="40" cy="-200" r="25" fill="#ffffff"/><circle cx="-38" cy="-196" r="9" fill="#2b2a22"/><circle cx="42" cy="-198" r="9" fill="#2b2a22"/></g>
<path d="M-72 -238 C-58 -256 -36 -258 -22 -248 M68 -236 C56 -248 36 -250 22 -240" fill="none" stroke="#4c5f3e" stroke-width="9" stroke-linecap="round" stroke-linejoin="round"/><path d="M-48 -144 C-28 -98 28 -98 48 -144 C22 -132 -22 -132 -48 -144 Z" fill="#3d2a2a"/><ellipse cx="0" cy="-114" rx="17" ry="8" fill="#b0483a"/><rect x="-9" y="-140" width="18" height="17" rx="5" fill="#fff8e6"/><ellipse cx="0" cy="-172" rx="24" ry="25" fill="#bcc793"/><ellipse cx="-7" cy="-180" rx="7" ry="9" fill="#d3dcae" opacity="0.8"/><path d="M112 -262 C104 -246 104 -236 112 -232 C120 -236 120 -246 112 -262 Z" fill="#9fd8ee"/></g>
</g>
<g transform="translate(950,446) rotate(17)"><g data-anim="float" data-tap="spin"><path d="M-124 -70 L124 -70 L136 34 C96 40 52 60 28 100 L-28 100 C-52 60 -96 40 -136 34 Z" fill="#fffaf0"/><path d="M-126 -74 L126 -74 L128 -46 L-128 -46 Z" fill="#e9dfc6"/><circle cx="-76" cy="-8" r="14" fill="#e2533a"/><circle cx="-4" cy="-16" r="14" fill="#e2533a"/><circle cx="72" cy="-6" r="14" fill="#e2533a"/><circle cx="-40" cy="30" r="13" fill="#e2533a"/><circle cx="40" cy="32" r="13" fill="#e2533a"/><circle cx="0" cy="68" r="12" fill="#e2533a"/><path d="M-116 -60 L116 -60" fill="none" stroke="#d1c4a4" stroke-width="4" stroke-linecap="round" stroke-linejoin="round"/></g>
</g>
<path d="M1078 380 C1100 390 1110 410 1106 432 M800 380 C790 400 792 420 802 436" fill="none" stroke="#ffffff" stroke-width="6" stroke-linecap="round" stroke-linejoin="round" opacity="0.45"/><g data-anim="float"><path d="M262 304 C312 320 300 372 350 388 C380 398 386 430 410 446" fill="none" stroke="#fffaf0" stroke-width="18" stroke-linecap="round" stroke-linejoin="round"/><rect x="166" y="268" width="100" height="72" rx="12" fill="#fffaf0"/><ellipse cx="254" cy="304" rx="14" ry="36" fill="#e9dfc6"/><ellipse cx="254" cy="304" rx="6" ry="14" fill="#b98550"/></g>
<g data-anim="float"><path d="M934 682 C884 694 892 738 846 750 C816 758 808 786 786 800" fill="none" stroke="#fffaf0" stroke-width="18" stroke-linecap="round" stroke-linejoin="round"/><rect x="930" y="640" width="100" height="72" rx="12" fill="#fffaf0"/><ellipse cx="942" cy="676" rx="14" ry="36" fill="#e9dfc6"/><ellipse cx="942" cy="676" rx="6" ry="14" fill="#b98550"/></g>
<g data-anim="wiggle" data-tap="hide"><path d="M1170 104 L1128 228" stroke="#e9dfc6" stroke-width="3"/><path d="M1108 234 L1090 216 M1104 248 L1080 246 M1108 258 L1090 272 M1138 236 L1160 224 M1140 250 L1164 250 M1136 260 L1154 274" fill="none" stroke="#2b1d14" stroke-width="4" stroke-linecap="round" stroke-linejoin="round"/><circle cx="1122" cy="246" r="22" fill="#3a2a3a"/><circle cx="1114" cy="242" r="7" fill="#ffffff"/><circle cx="1130" cy="242" r="7" fill="#ffffff"/><circle cx="1115" cy="243" r="3" fill="#2b1d14"/><circle cx="1131" cy="243" r="3" fill="#2b1d14"/><ellipse cx="1122" cy="256" rx="4" ry="5" fill="#ffffff"/></g>
<g ><path d="M400 160 Q400 180 420 180 Q400 180 400 200 Q400 180 380 180 Q400 180 400 160 Z" fill="#ffe58a"/><path d="M790 314 Q790 330 806 330 Q790 330 790 346 Q790 330 774 330 Q790 330 790 314 Z" fill="#ffe58a"/><path d="M250 466 Q250 480 264 480 Q250 480 250 494 Q250 480 236 480 Q250 480 250 466 Z" fill="#ffe58a"/><path d="M1010 586 Q1010 600 1024 600 Q1010 600 1010 614 Q1010 600 996 600 Q1010 600 1010 586 Z" fill="#ffe58a"/></g>
</svg>
