<svg xmlns="http://www.w3.org/2000/svg" viewBox="0 0 1200 900">
  <defs>
    <linearGradient id="sky" x1="0" y1="0" x2="0" y2="1"><stop offset="0" stop-color="#cfe9f7"/><stop offset="1" stop-color="#f3f8e6"/></linearGradient>
    <radialGradient id="nanaFur" cx="0.45" cy="0.35" r="0.85"><stop offset="0" stop-color="#fffaf0"/><stop offset="1" stop-color="#ecdcc0"/></radialGradient>
    <radialGradient id="nuniFur" cx="0.45" cy="0.35" r="0.85"><stop offset="0" stop-color="#c9c3cf"/><stop offset="1" stop-color="#9d95a8"/></radialGradient>
  </defs>
  <rect width="1200" height="900" fill="url(#sky)"/>
  <rect y="720" width="1200" height="180" fill="#8fcf82"/>
  <!-- NANA: cream rabbit, caramel ear tips, blue neckerchief -->
  <g data-anim="bob" data-tap="jump">
    <circle cx="255" cy="640" r="30" fill="#fffaf0"/>
    <ellipse cx="300" cy="752" rx="60" ry="34" fill="#ecdcc0"/>
    <ellipse cx="440" cy="752" rx="60" ry="34" fill="#ecdcc0"/>
    <ellipse cx="370" cy="610" rx="135" ry="160" fill="url(#nanaFur)"/>
    <ellipse cx="370" cy="640" rx="78" ry="100" fill="#ffffff"/>
    <ellipse cx="262" cy="600" rx="34" ry="62" fill="#f3e6cd" transform="rotate(14 262 600)"/>
    <ellipse cx="478" cy="600" rx="34" ry="62" fill="#f3e6cd" transform="rotate(-14 478 600)"/>
    <!-- long hanging ears, down to the knees -->
    <path d="M250 300 C190 330 170 470 190 610 C196 660 232 672 250 630 C276 560 286 420 300 320 Z" fill="#f3e6cd"/>
    <path d="M222 520 C214 580 208 620 222 646 C238 640 250 600 256 540 Z" fill="#d9a066"/>
    <path d="M250 340 C222 380 212 470 222 560 C246 500 262 410 274 340 Z" fill="#f7c9c4"/>
    <path d="M490 300 C550 330 570 470 550 610 C544 660 508 672 490 630 C464 560 454 420 440 320 Z" fill="#f3e6cd"/>
    <path d="M518 520 C526 580 532 620 518 646 C502 640 490 600 484 540 Z" fill="#d9a066"/>
    <path d="M490 340 C518 380 528 470 518 560 C494 500 478 410 466 340 Z" fill="#f7c9c4"/>
    <ellipse cx="370" cy="350" rx="135" ry="120" fill="url(#nanaFur)"/>
    <ellipse cx="370" cy="392" rx="62" ry="46" fill="#ffffff"/>
    <path d="M356 372 L384 372 L370 390 Z" fill="#f08a9b"/>
    <path d="M370 390 L370 404 M370 404 C358 416 344 414 338 404 M370 404 C382 416 396 414 402 404" fill="none" stroke="#5a4636" stroke-width="5" stroke-linecap="round"/>
    <rect x="360" y="408" width="20" height="18" rx="4" fill="#ffffff" stroke="#d8cbb5" stroke-width="2"/>
    <ellipse cx="288" cy="388" rx="24" ry="15" fill="#f7b3b0" opacity="0.7"/>
    <ellipse cx="452" cy="388" rx="24" ry="15" fill="#f7b3b0" opacity="0.7"/>
    <g data-anim="blink">
      <circle cx="320" cy="336" r="24" fill="#ffffff"/>
      <circle cx="420" cy="336" r="24" fill="#ffffff"/>
      <circle cx="324" cy="340" r="15" fill="#2b1d14"/>
      <circle cx="424" cy="340" r="15" fill="#2b1d14"/>
      <circle cx="330" cy="333" r="5" fill="#ffffff"/>
      <circle cx="430" cy="333" r="5" fill="#ffffff"/>
    </g>
    <path d="M298 300 C312 290 330 290 342 298 M398 298 C410 290 428 290 442 300" fill="none" stroke="#b79a72" stroke-width="6" stroke-linecap="round"/>
    <path d="M262 452 C330 486 410 486 478 452 L464 494 C410 514 330 514 276 494 Z" fill="#2f80ed"/>
    <path d="M356 498 L396 498 L378 560 Z" fill="#1c5fc0"/>
  </g>
  <!-- NUNI: slightly smaller, lilac-grey rabbit, white belly and muzzle, yellow neckerchief, one tuft of hair -->
  <g data-anim="bob" data-tap="wiggle">
    <circle cx="950" cy="660" r="27" fill="#ffffff"/>
    <ellipse cx="760" cy="756" rx="54" ry="31" fill="#9d95a8"/>
    <ellipse cx="888" cy="756" rx="54" ry="31" fill="#9d95a8"/>
    <ellipse cx="824" cy="630" rx="120" ry="142" fill="url(#nuniFur)"/>
    <ellipse cx="824" cy="656" rx="70" ry="88" fill="#ffffff"/>
    <ellipse cx="728" cy="620" rx="30" ry="56" fill="#b3acbc" transform="rotate(14 728 620)"/>
    <ellipse cx="920" cy="620" rx="30" ry="56" fill="#b3acbc" transform="rotate(-14 920 620)"/>
    <path d="M716 350 C662 378 644 500 662 624 C668 668 700 678 716 642 C740 578 748 456 760 368 Z" fill="#b3acbc"/>
    <path d="M716 386 C692 420 682 500 692 578 C712 526 726 448 738 386 Z" fill="#f7c9c4"/>
    <path d="M932 350 C986 378 1004 500 986 624 C980 668 948 678 932 642 C908 578 900 456 888 368 Z" fill="#b3acbc"/>
    <path d="M932 386 C956 420 966 500 956 578 C936 526 922 448 910 386 Z" fill="#f7c9c4"/>
    <ellipse cx="824" cy="398" rx="120" ry="106" fill="url(#nuniFur)"/>
    <path d="M800 300 C806 276 822 268 830 290 C840 270 856 276 852 302 Z" fill="#b3acbc"/>
    <ellipse cx="824" cy="436" rx="56" ry="42" fill="#ffffff"/>
    <path d="M811 418 L837 418 L824 434 Z" fill="#f08a9b"/>
    <path d="M824 434 L824 446 M824 446 C813 457 801 455 796 446 M824 446 C835 457 847 455 852 446" fill="none" stroke="#4a4354" stroke-width="5" stroke-linecap="round"/>
    <rect x="815" y="450" width="18" height="16" rx="4" fill="#ffffff" stroke="#cfc8d8" stroke-width="2"/>
    <ellipse cx="752" cy="432" rx="21" ry="13" fill="#f7b3b0" opacity="0.7"/>
    <ellipse cx="896" cy="432" rx="21" ry="13" fill="#f7b3b0" opacity="0.7"/>
    <g data-anim="blink">
      <circle cx="780" cy="386" r="22" fill="#ffffff"/>
      <circle cx="868" cy="386" r="22" fill="#ffffff"/>
      <circle cx="784" cy="390" r="14" fill="#2b1d14"/>
      <circle cx="872" cy="390" r="14" fill="#2b1d14"/>
      <circle cx="789" cy="384" r="5" fill="#ffffff"/>
      <circle cx="877" cy="384" r="5" fill="#ffffff"/>
    </g>
    <path d="M760 354 C772 345 788 345 800 352 M848 352 C860 345 876 345 888 354" fill="none" stroke="#6f6680" stroke-width="6" stroke-linecap="round"/>
    <path d="M728 490 C788 520 860 520 920 490 L908 528 C860 546 788 546 740 528 Z" fill="#f2c230"/>
    <path d="M812 532 L848 532 L832 586 Z" fill="#d9a514"/>
  </g>
</svg>
