<svg xmlns="http://www.w3.org/2000/svg" viewBox="102 124 415 414" fill="none">
  <path fill="#00d6ff" fill-rule="evenodd" d="M 292 132.563 C 270.902 138.054, 252.410 155.483, 244.852 177 C 241.554 186.389, 241.485 207.296, 244.718 217.500 C 248.198 228.484, 253.469 236.394, 265.356 248.471 C 292.193 275.735, 298.160 292.498, 285.970 306.382 C 279.565 313.676, 269.451 316.582, 261.031 313.546 C 252.433 310.445, 241.736 302.699, 228.600 290.060 C 214.075 276.085, 207.366 271.490, 195.490 267.386 C 188.425 264.944, 186.053 264.625, 175 264.625 C 163.947 264.625, 161.575 264.944, 154.510 267.386 C 133.735 274.565, 117.977 290.249, 111.322 310.369 C 108.981 317.450, 108.633 320.115, 108.633 331 C 108.633 341.915, 108.978 344.542, 111.349 351.715 C 118.088 372.098, 135.975 389.226, 157 395.427 C 165.917 398.057, 178.309 398.524, 187.858 396.589 C 203.662 393.387, 210.922 389.002, 228.500 372.042 C 250.161 351.142, 263.172 344.571, 275.067 348.522 C 285.319 351.927, 292 360.899, 292 371.262 C 292 381.700, 282.691 396.347, 264.516 414.507 C 253.481 425.533, 248.186 433.555, 244.718 444.500 C 242.876 450.314, 242.504 453.788, 242.522 465 C 242.541 477.075, 242.824 479.274, 245.201 485.835 C 249.075 496.525, 253.541 503.483, 262 512.003 C 270.665 520.731, 281.596 527.002, 292.624 529.573 C 302.566 531.891, 321.229 531.160, 330 528.109 C 345.510 522.715, 360.110 510.049, 367.753 495.358 C 373.093 485.094, 374.967 477.089, 374.985 464.460 C 375.003 452.353, 373.353 445.303, 367.886 434.137 C 364.419 427.056, 361.844 423.761, 351.084 412.637 C 344.095 405.412, 336.554 396.800, 334.324 393.500 C 313.250 362.301, 309.361 322.819, 323.918 287.851 C 329.463 274.532, 336.277 264.835, 350.568 249.929 C 362.518 237.465, 364.475 234.918, 368.411 226.715 C 373.710 215.670, 375 209.949, 375 197.500 C 375 184.994, 373.711 179.336, 368.280 168 C 364.500 160.109, 362.355 157.126, 355.615 150.385 C 348.874 143.645, 345.891 141.500, 338 137.720 C 332.775 135.216, 326.115 132.681, 323.201 132.084 C 315.845 130.579, 298.606 130.844, 292 132.563 M 429.015 265.467 C 410.049 269.069, 391.545 283.008, 383.124 300.034 C 375.937 314.567, 375.791 315.549, 375.271 353.049 C 374.751 390.519, 374.981 392.189, 381.190 395.974 C 384.326 397.887, 386.168 397.993, 416.292 397.996 C 452.897 398.001, 458.459 397.282, 472 390.798 C 483.951 385.075, 495.915 373.139, 501.868 361 C 511.405 341.551, 511.404 320.441, 501.865 301 C 496.739 290.552, 485.079 278.292, 475 272.751 C 461.383 265.264, 444.315 262.560, 429.015 265.467"/>
</svg>
