<svg xmlns="http://www.w3.org/2000/svg" viewBox="0 0 1200 900">
<defs>
    <linearGradient id="sky" x1="0" y1="0" x2="0" y2="1"><stop offset="0" stop-color="#7cc8f2"/><stop offset="1" stop-color="#e3f6ee"/></linearGradient>
    <radialGradient id="fur" cx="0.45" cy="0.35" r="0.8"><stop offset="0" stop-color="#b9783f"/><stop offset="1" stop-color="#8f5626"/></radialGradient>
    <linearGradient id="riv" x1="0" y1="0" x2="0" y2="1"><stop offset="0" stop-color="#9be2f4"/><stop offset="1" stop-color="#3d9bd4"/></linearGradient>
    <linearGradient id="gr" x1="0" y1="0" x2="0" y2="1"><stop offset="0" stop-color="#93d873"/><stop offset="1" stop-color="#4fa64d"/></linearGradient>
    <radialGradient id="sun" cx="0.5" cy="0.5" r="0.5"><stop offset="0" stop-color="#fff6c2"/><stop offset="0.55" stop-color="#ffe680"/><stop offset="1" stop-color="#ffe680" stop-opacity="0"/></radialGradient>
    <g id="fs"><path d="M-38 0 L-78 -30 Q-66 0 -78 30Z" fill="#e8892b"/><path d="M-12 -24 Q6 -52 26 -22Z" fill="#e8892b"/><ellipse rx="52" ry="31" fill="#f8b93f"/><circle cx="-18" cy="-8" r="7" fill="#d9642b"/><circle cx="-2" cy="10" r="6" fill="#d9642b"/><circle cx="6" cy="-12" r="5" fill="#d9642b"/><circle cx="-28" cy="9" r="5" fill="#d9642b"/><circle cx="30" cy="-7" r="10" fill="#ffffff"/><circle cx="33" cy="-7" r="5" fill="#2b1d14"/><path d="M30 12 Q40 20 47 9" fill="none" stroke="#2b1d14" stroke-width="3" stroke-linecap="round"/></g>
    <g id="fv"><path d="M-40 0 L-76 -24 Q-66 0 -76 24Z" fill="#9fb3c2"/><path d="M-10 -16 Q4 -36 20 -16Z" fill="#9fb3c2"/><ellipse rx="54" ry="21" fill="#dbe6ee"/><path d="M-40 6 Q0 22 44 6 Q0 14 -40 6Z" fill="#b7c8d5"/><circle cx="32" cy="-5" r="8" fill="#ffffff"/><circle cx="34" cy="-5" r="4" fill="#2b1d14"/></g>
    <g id="ff"><path d="M-34 0 L-70 -28 Q-60 0 -70 28Z" fill="#d96a5e"/><path d="M-10 -34 Q4 -58 22 -32Z" fill="#d96a5e"/><ellipse rx="46" ry="40" fill="#f4927f"/><ellipse cx="-4" cy="16" rx="28" ry="16" fill="#f9b8a6"/><circle cx="24" cy="-12" r="10" fill="#ffffff"/><circle cx="27" cy="-12" r="5" fill="#2b1d14"/><path d="M28 8 Q36 14 42 6" fill="none" stroke="#2b1d14" stroke-width="3" stroke-linecap="round"/></g>
    <g id="fq"><path d="M-44 0 L-84 -20 Q-72 0 -84 20Z" fill="#5d6bc4"/><ellipse rx="58" ry="15" fill="#8a97ea"/><path d="M-30 -11 Q0 -26 28 -11Z" fill="#5d6bc4"/><circle cx="38" cy="-3" r="7" fill="#ffffff"/><circle cx="40" cy="-3" r="4" fill="#2b1d14"/></g>
    <g id="bi"><path d="M-10 0 L-6 -250 L6 -250 L10 0Z" fill="#f7f5ee"/><path d="M-9 -40 h10 M-1 -85 h9 M-8 -130 h9 M-1 -170 h7" stroke="#4a4a48" stroke-width="5" stroke-linecap="round"/><ellipse cx="-42" cy="-215" rx="55" ry="58" fill="#6dbb58"/><ellipse cx="46" cy="-205" rx="55" ry="55" fill="#6dbb58"/><ellipse cx="0" cy="-265" rx="72" ry="78" fill="#86cf69"/><ellipse cx="-20" cy="-290" rx="34" ry="30" fill="#a2dd82"/></g>
    <g id="dy"><path d="M0 0 Q4 -30 0 -58" fill="none" stroke="#3f8f3f" stroke-width="5" stroke-linecap="round"/><path d="M0 0 Q-22 -8 -30 -26 Q-10 -22 0 -6 Q12 -24 30 -28 Q22 -8 0 0Z" fill="#3f8f3f"/><circle cx="0" cy="-62" r="17" fill="#ffd23f"/><circle cx="0" cy="-62" r="8" fill="#f5a623"/></g>
    <g id="dc"><path d="M0 0 Q-4 -34 0 -70" fill="none" stroke="#3f8f3f" stroke-width="5" stroke-linecap="round"/><path d="M0 0 Q-22 -8 -30 -26 Q-10 -22 0 -6 Q12 -24 30 -28 Q22 -8 0 0Z" fill="#3f8f3f"/><circle cx="0" cy="-78" r="24" fill="#ffffff" opacity="0.55"/><circle cx="0" cy="-78" r="17" fill="#ffffff" opacity="0.9"/><circle cx="0" cy="-78" r="5" fill="#d9cfa8"/></g>
  
<g id="bd"><path d="M-28 -28 L-60 -46 L-54 -18Z" fill="#2f86c4"/><ellipse cx="0" cy="-30" rx="34" ry="31" fill="#4aa8e0"/><ellipse cx="10" cy="-20" rx="21" ry="19" fill="#fde7a0"/><path d="M-24 -36 Q-4 -54 8 -30 Q-8 -12 -24 -36Z" fill="#2f86c4"/><path d="M30 -40 L52 -33 L30 -27Z" fill="#f59e2a"/><circle cx="18" cy="-42" r="8" fill="#ffffff"/><circle cx="20" cy="-42" r="4" fill="#2b1d14"/><path d="M-4 -1 v9 M8 -1 v9" stroke="#f59e2a" stroke-width="4" stroke-linecap="round"/></g>
<g id="bw"><path d="M-10 -34 Q-52 -60 -44 -96 Q-18 -76 4 -50Z" fill="#2f86c4"/><path d="M12 -40 Q44 -78 30 -104 Q8 -80 -2 -52Z" fill="#2f86c4"/><ellipse cx="0" cy="-30" rx="34" ry="31" fill="#4aa8e0"/><ellipse cx="10" cy="-20" rx="21" ry="19" fill="#fde7a0"/><path d="M30 -46 L54 -48 L32 -36Z" fill="#f59e2a"/><path d="M30 -34 L50 -26 L30 -28Z" fill="#e0851a"/><path d="M10 -44 Q18 -52 26 -44" fill="none" stroke="#2b1d14" stroke-width="4" stroke-linecap="round"/><path d="M-4 -1 v9 M8 -1 v9" stroke="#f59e2a" stroke-width="4" stroke-linecap="round"/></g>
<g id="dr"><path d="M0 -18 Q-13 4 0 13 Q13 4 0 -18Z" fill="#bfeaff"/><circle cx="-3" cy="3" r="3" fill="#ffffff"/></g>
<g id="lf"><path d="M0 0 Q12 -16 28 0 Q12 16 0 0Z" fill="#6dbb58"/><path d="M2 0 L26 0" stroke="#3f8f3f" stroke-width="2"/></g>
<g id="sd"><path d="M0 0 L0 -26" stroke="#d9cfa8" stroke-width="2"/><ellipse cx="0" cy="2" rx="3" ry="6" fill="#8a6a3a"/><path d="M0 -26 L-15 -40 M0 -26 L-8 -45 M0 -26 L0 -47 M0 -26 L8 -45 M0 -26 L15 -40 M0 -26 L-19 -31 M0 -26 L19 -31" stroke="#ffffff" stroke-width="3" stroke-linecap="round"/></g>
<g id="hn"><path d="M-30 -8 Q-28 -30 0 -30 Q28 -30 30 -8 Q30 8 22 10 L22 34 Q22 44 15 44 Q8 44 8 34 L8 14 Q0 18 -6 14 L-6 26 Q-6 34 -12 34 Q-18 34 -18 26 L-18 10 Q-30 8 -30 -8Z" fill="#f5b82e"/><ellipse cx="-10" cy="-16" rx="9" ry="5" fill="#ffe08a"/></g>
<g id="fb"><path d="M-40 0 L40 0 M-22 -14 L-18 14 M-6 -17 L-2 17 M10 -15 L14 15 M26 -11 L29 11" stroke="#f3efe2" stroke-width="5" stroke-linecap="round" fill="none"/><path d="M40 0 L62 -15 L62 15Z" fill="#f3efe2"/><path d="M-40 0 L-62 -16 Q-74 0 -62 16Z" fill="#f3efe2"/><circle cx="-58" cy="-3" r="3" fill="#2b1d14"/></g>
<linearGradient id="tor" x1="0" y1="0" x2="0" y2="1"><stop offset="0" stop-color="#e2f7ff"/><stop offset="1" stop-color="#58b4e6"/></linearGradient>
<linearGradient id="rk" x1="0" y1="0" x2="0" y2="1"><stop offset="0" stop-color="#b4bcc6"/><stop offset="1" stop-color="#7b8490"/></linearGradient>
</defs>
<rect width="1200" height="900" fill="url(#sky)"/><g data-anim="pulse"><circle cx="170" cy="110" r="130" fill="url(#sun)"/><circle cx="170" cy="110" r="62" fill="#fff3a8"/></g><g transform="translate(620 90) scale(0.9)"><g data-anim="drift"><ellipse cx="0" cy="20" rx="90" ry="34" fill="#ffffff"/><ellipse cx="-50" cy="0" rx="50" ry="34" fill="#ffffff"/><ellipse cx="40" cy="-5" rx="55" ry="38" fill="#ffffff"/></g></g><circle cx="0" cy="300" r="105" fill="#7dbf70"/><circle cx="110" cy="322" r="125" fill="#7dbf70"/><circle cx="230" cy="344" r="105" fill="#7dbf70"/><circle cx="350" cy="300" r="125" fill="#7dbf70"/><circle cx="480" cy="322" r="105" fill="#7dbf70"/><circle cx="600" cy="344" r="125" fill="#7dbf70"/><circle cx="720" cy="300" r="105" fill="#7dbf70"/><circle cx="850" cy="322" r="125" fill="#7dbf70"/><circle cx="970" cy="344" r="105" fill="#7dbf70"/><circle cx="1090" cy="300" r="125" fill="#7dbf70"/><circle cx="1200" cy="322" r="105" fill="#7dbf70"/><path d="M40 520 L40 380" stroke="#7a5230" stroke-width="22"/><circle cx="40" cy="360" r="100" fill="#559f58"/><circle cx="10" cy="330" r="55" fill="#62ad62"/><path d="M420 520 L420 380" stroke="#7a5230" stroke-width="22"/><circle cx="420" cy="380" r="100" fill="#559f58"/><circle cx="390" cy="350" r="55" fill="#62ad62"/><path d="M640 520 L640 380" stroke="#7a5230" stroke-width="22"/><circle cx="640" cy="360" r="100" fill="#559f58"/><circle cx="610" cy="330" r="55" fill="#62ad62"/><path d="M1010 520 L1010 380" stroke="#7a5230" stroke-width="22"/><circle cx="1010" cy="380" r="100" fill="#559f58"/><circle cx="980" cy="350" r="55" fill="#62ad62"/><g transform="translate(190 540) scale(1.0 1.0)"><use href="#bi"/></g><g transform="translate(820 520) scale(0.85 0.85)"><use href="#bi"/></g><g transform="translate(1150 560) scale(1.15 1.15)"><use href="#bi"/></g><path d="M0 500 C300 465 900 465 1200 500 L1200 900 L0 900Z" fill="url(#gr)"/><ellipse cx="520" cy="800" rx="520" ry="130" fill="#b9ea8c" opacity="0.6"/><g data-tap="wiggle"><ellipse cx="150" cy="800" rx="120" ry="22" fill="#2f7a3a" opacity="0.3"/><ellipse cx="140" cy="735" rx="92" ry="74" fill="#e39a4a"/><path d="M70 690 Q140 730 110 800 M150 663 Q200 735 150 808" fill="none" stroke="#c97c2e" stroke-width="10"/><ellipse cx="218" cy="722" rx="34" ry="62" fill="#c97c2e" transform="rotate(8 218 722)"/><ellipse cx="222" cy="722" rx="24" ry="50" fill="#6b3f17" transform="rotate(8 222 722)"/><path d="M226 768 Q262 772 270 800 Q250 812 226 804 Q214 786 226 768Z" fill="#f5b82e"/><ellipse cx="246" cy="790" rx="9" ry="4" fill="#ffe08a"/></g><g data-anim="sway" data-tap="wiggle"><ellipse cx="1010" cy="800" rx="160" ry="24" fill="#2f7a3a" opacity="0.3"/><circle cx="950" cy="720" r="80" fill="#3f8f4a"/><circle cx="1070" cy="725" r="85" fill="#3f8f4a"/><circle cx="1010" cy="670" r="90" fill="#58a85a"/><circle cx="1090" cy="660" r="50" fill="#58a85a"/><circle cx="960" cy="650" r="13" fill="#3c4fc4"/><circle cx="956" cy="646" r="4" fill="#8fa0f0"/><circle cx="1040" cy="640" r="13" fill="#3c4fc4"/><circle cx="1036" cy="636" r="4" fill="#8fa0f0"/><circle cx="1100" cy="700" r="13" fill="#3c4fc4"/><circle cx="1096" cy="696" r="4" fill="#8fa0f0"/><circle cx="930" cy="730" r="13" fill="#3c4fc4"/><circle cx="926" cy="726" r="4" fill="#8fa0f0"/><circle cx="1010" cy="720" r="13" fill="#3c4fc4"/><circle cx="1006" cy="716" r="4" fill="#8fa0f0"/><circle cx="1070" cy="770" r="13" fill="#3c4fc4"/><circle cx="1066" cy="766" r="4" fill="#8fa0f0"/><circle cx="980" cy="780" r="13" fill="#3c4fc4"/><circle cx="976" cy="776" r="4" fill="#8fa0f0"/><circle cx="1120" cy="640" r="13" fill="#3c4fc4"/><circle cx="1116" cy="636" r="4" fill="#8fa0f0"/></g><g data-anim="sway"><g transform="translate(330 610) scale(0.8 0.8)"><use href="#dy"/></g><g transform="translate(800 640) scale(0.9 0.9)"><use href="#dc"/></g><g transform="translate(860 850) scale(1.1 1.1)"><use href="#dy"/></g></g><g transform="translate(60 880) scale(1.0 1.0)"><use href="#dy"/></g><g transform="translate(760 600) scale(0.6 0.6)"><use href="#dy"/></g><g data-anim="float" data-tap="grow"><circle cx="668" cy="262" r="13" fill="#ffffff"/><circle cx="716" cy="226" r="21" fill="#ffffff"/><circle cx="930" cy="175" r="100" fill="#ffffff"/><circle cx="820" cy="165" r="62" fill="#ffffff"/><circle cx="875" cy="110" r="70" fill="#ffffff"/><circle cx="975" cy="98" r="76" fill="#ffffff"/><circle cx="1055" cy="160" r="66" fill="#ffffff"/><circle cx="1005" cy="232" r="62" fill="#ffffff"/><circle cx="880" cy="235" r="62" fill="#ffffff"/><circle cx="790" cy="215" r="40" fill="#ffffff"/><g transform="translate(935 172) scale(1.35 1.35)"><use href="#fs"/></g><path d="M1040 120 l6 -14 l6 14 l14 6 l-14 6 l-6 14 l-6 -14 l-14 -6Z" fill="#ffd23f"/></g><g data-anim="wiggle" data-tap="spin"><path d="M150 420 Q210 470 260 400 Q290 350 250 330" fill="none" stroke="#ffffff" stroke-width="4" stroke-dasharray="4 12" stroke-linecap="round" opacity="0.9"/><ellipse cx="262" cy="296" rx="16" ry="11" fill="#ffffff" opacity="0.85" transform="rotate(-30 262 296)"/><ellipse cx="280" cy="294" rx="16" ry="11" fill="#ffffff" opacity="0.85" transform="rotate(20 280 294)"/><ellipse cx="270" cy="318" rx="26" ry="18" fill="#ffd23f"/><path d="M262 302 v32 M276 301 v34" stroke="#2b1d14" stroke-width="7"/><circle cx="288" cy="314" r="4" fill="#2b1d14"/><path d="M244 318 l-10 0" stroke="#2b1d14" stroke-width="4" stroke-linecap="round"/></g><ellipse cx="470" cy="822" rx="210" ry="30" fill="#2f7a3a" opacity="0.3"/><g transform="translate(-87 75) scale(0.92)"><g data-anim="bob" data-tap="jump"><ellipse cx="605" cy="590" rx="170" ry="185" fill="url(#fur)"/><ellipse cx="605" cy="620" rx="105" ry="120" fill="#e9c79b"/><path d="M480 430 C560 470 650 470 730 430 L712 478 C650 500 560 500 498 478 Z" fill="#e63946"/><path d="M590 482 L640 482 L618 560 Z" fill="#c92a37"/><path d="M742 500 Q800 590 730 640" fill="none" stroke="#9c5f2c" stroke-width="70" stroke-linecap="round" stroke-linejoin="round"/><circle cx="722" cy="640" r="38" fill="#9c5f2c"/><g transform="translate(712 650) scale(0.7 0.7)"><use href="#hn"/></g><path d="M470 505 Q372 550 388 440" fill="none" stroke="#9c5f2c" stroke-width="70" stroke-linecap="round" stroke-linejoin="round"/><circle cx="388" cy="432" r="42" fill="#9c5f2c"/><circle cx="388" cy="432" r="28" fill="#e9c79b"/><g transform="translate(388 440) scale(1.0 1.0)"><use href="#hn"/></g><ellipse cx="482" cy="745" rx="68" ry="58" fill="#8f5626"/><ellipse cx="728" cy="745" rx="68" ry="58" fill="#8f5626"/><ellipse cx="482" cy="750" rx="40" ry="34" fill="#e9c79b"/><ellipse cx="728" cy="750" rx="40" ry="34" fill="#e9c79b"/><circle cx="482" cy="212" r="56" fill="#8f5626"/><circle cx="728" cy="212" r="56" fill="#8f5626"/><circle cx="482" cy="216" r="30" fill="#e9c79b"/><circle cx="728" cy="216" r="30" fill="#e9c79b"/><ellipse cx="605" cy="320" rx="165" ry="145" fill="url(#fur)"/><ellipse cx="605" cy="372" rx="78" ry="60" fill="#e9c79b"/><path d="M605 364 L605 388 M605 388 C590 404 570 402 562 390 M605 388 C620 404 640 402 648 390" fill="none" stroke="#2b1d14" stroke-width="6" stroke-linecap="round" stroke-linejoin="round"/><path d="M582 394 Q605 402 628 394 L630 420 Q630 448 605 448 Q580 448 580 420Z" fill="#5f74dd"/><path d="M605 404 v26" stroke="#4558b8" stroke-width="4" stroke-linecap="round"/><ellipse cx="605" cy="346" rx="26" ry="18" fill="#2b1d14"/><ellipse cx="597" cy="340" rx="8" ry="4" fill="#6b5446"/><ellipse cx="505" cy="360" rx="26" ry="17" fill="#f2a08a" opacity="0.7"/><ellipse cx="705" cy="360" rx="26" ry="17" fill="#f2a08a" opacity="0.7"/><g data-anim="blink"><circle cx="545" cy="300" r="26" fill="#ffffff"/><circle cx="665" cy="300" r="26" fill="#ffffff"/><circle cx="552" cy="293" r="16" fill="#2b1d14"/><circle cx="672" cy="293" r="16" fill="#2b1d14"/><circle cx="558" cy="286" r="6" fill="#ffffff"/><circle cx="678" cy="286" r="6" fill="#ffffff"/></g><path d="M518 244 C534 232 556 232 570 242 M640 242 C654 232 676 232 692 244" fill="none" stroke="#5e3716" stroke-width="7" stroke-linecap="round" stroke-linejoin="round"/></g></g><g transform="translate(1130 880) scale(1.2 1.2)"><use href="#dc"/></g>
</svg>
