<svg xmlns="http://www.w3.org/2000/svg" viewBox="0 0 1200 900">
<defs>
    <linearGradient id="sky" x1="0" y1="0" x2="0" y2="1"><stop offset="0" stop-color="#7cc8f2"/><stop offset="1" stop-color="#e3f6ee"/></linearGradient>
    <radialGradient id="fur" cx="0.45" cy="0.35" r="0.8"><stop offset="0" stop-color="#b9783f"/><stop offset="1" stop-color="#8f5626"/></radialGradient>
    <linearGradient id="riv" x1="0" y1="0" x2="0" y2="1"><stop offset="0" stop-color="#9be2f4"/><stop offset="1" stop-color="#3d9bd4"/></linearGradient>
    <linearGradient id="gr" x1="0" y1="0" x2="0" y2="1"><stop offset="0" stop-color="#93d873"/><stop offset="1" stop-color="#4fa64d"/></linearGradient>
    <radialGradient id="sun" cx="0.5" cy="0.5" r="0.5"><stop offset="0" stop-color="#fff6c2"/><stop offset="0.55" stop-color="#ffe680"/><stop offset="1" stop-color="#ffe680" stop-opacity="0"/></radialGradient>
    <g id="fs"><path d="M-38 0 L-78 -30 Q-66 0 -78 30Z" fill="#e8892b"/><path d="M-12 -24 Q6 -52 26 -22Z" fill="#e8892b"/><ellipse rx="52" ry="31" fill="#f8b93f"/><circle cx="-18" cy="-8" r="7" fill="#d9642b"/><circle cx="-2" cy="10" r="6" fill="#d9642b"/><circle cx="6" cy="-12" r="5" fill="#d9642b"/><circle cx="-28" cy="9" r="5" fill="#d9642b"/><circle cx="30" cy="-7" r="10" fill="#ffffff"/><circle cx="33" cy="-7" r="5" fill="#2b1d14"/><path d="M30 12 Q40 20 47 9" fill="none" stroke="#2b1d14" stroke-width="3" stroke-linecap="round"/></g>
    <g id="fv"><path d="M-40 0 L-76 -24 Q-66 0 -76 24Z" fill="#9fb3c2"/><path d="M-10 -16 Q4 -36 20 -16Z" fill="#9fb3c2"/><ellipse rx="54" ry="21" fill="#dbe6ee"/><path d="M-40 6 Q0 22 44 6 Q0 14 -40 6Z" fill="#b7c8d5"/><circle cx="32" cy="-5" r="8" fill="#ffffff"/><circle cx="34" cy="-5" r="4" fill="#2b1d14"/></g>
    <g id="ff"><path d="M-34 0 L-70 -28 Q-60 0 -70 28Z" fill="#d96a5e"/><path d="M-10 -34 Q4 -58 22 -32Z" fill="#d96a5e"/><ellipse rx="46" ry="40" fill="#f4927f"/><ellipse cx="-4" cy="16" rx="28" ry="16" fill="#f9b8a6"/><circle cx="24" cy="-12" r="10" fill="#ffffff"/><circle cx="27" cy="-12" r="5" fill="#2b1d14"/><path d="M28 8 Q36 14 42 6" fill="none" stroke="#2b1d14" stroke-width="3" stroke-linecap="round"/></g>
    <g id="fq"><path d="M-44 0 L-84 -20 Q-72 0 -84 20Z" fill="#5d6bc4"/><ellipse rx="58" ry="15" fill="#8a97ea"/><path d="M-30 -11 Q0 -26 28 -11Z" fill="#5d6bc4"/><circle cx="38" cy="-3" r="7" fill="#ffffff"/><circle cx="40" cy="-3" r="4" fill="#2b1d14"/></g>
    <g id="bi"><path d="M-10 0 L-6 -250 L6 -250 L10 0Z" fill="#f7f5ee"/><path d="M-9 -40 h10 M-1 -85 h9 M-8 -130 h9 M-1 -170 h7" stroke="#4a4a48" stroke-width="5" stroke-linecap="round"/><ellipse cx="-42" cy="-215" rx="55" ry="58" fill="#6dbb58"/><ellipse cx="46" cy="-205" rx="55" ry="55" fill="#6dbb58"/><ellipse cx="0" cy="-265" rx="72" ry="78" fill="#86cf69"/><ellipse cx="-20" cy="-290" rx="34" ry="30" fill="#a2dd82"/></g>
    <g id="dy"><path d="M0 0 Q4 -30 0 -58" fill="none" stroke="#3f8f3f" stroke-width="5" stroke-linecap="round"/><path d="M0 0 Q-22 -8 -30 -26 Q-10 -22 0 -6 Q12 -24 30 -28 Q22 -8 0 0Z" fill="#3f8f3f"/><circle cx="0" cy="-62" r="17" fill="#ffd23f"/><circle cx="0" cy="-62" r="8" fill="#f5a623"/></g>
    <g id="dc"><path d="M0 0 Q-4 -34 0 -70" fill="none" stroke="#3f8f3f" stroke-width="5" stroke-linecap="round"/><path d="M0 0 Q-22 -8 -30 -26 Q-10 -22 0 -6 Q12 -24 30 -28 Q22 -8 0 0Z" fill="#3f8f3f"/><circle cx="0" cy="-78" r="24" fill="#ffffff" opacity="0.55"/><circle cx="0" cy="-78" r="17" fill="#ffffff" opacity="0.9"/><circle cx="0" cy="-78" r="5" fill="#d9cfa8"/></g>
  
<g id="bd"><path d="M-28 -28 L-60 -46 L-54 -18Z" fill="#2f86c4"/><ellipse cx="0" cy="-30" rx="34" ry="31" fill="#4aa8e0"/><ellipse cx="10" cy="-20" rx="21" ry="19" fill="#fde7a0"/><path d="M-24 -36 Q-4 -54 8 -30 Q-8 -12 -24 -36Z" fill="#2f86c4"/><path d="M30 -40 L52 -33 L30 -27Z" fill="#f59e2a"/><circle cx="18" cy="-42" r="8" fill="#ffffff"/><circle cx="20" cy="-42" r="4" fill="#2b1d14"/><path d="M-4 -1 v9 M8 -1 v9" stroke="#f59e2a" stroke-width="4" stroke-linecap="round"/></g>
<g id="bw"><path d="M-10 -34 Q-52 -60 -44 -96 Q-18 -76 4 -50Z" fill="#2f86c4"/><path d="M12 -40 Q44 -78 30 -104 Q8 -80 -2 -52Z" fill="#2f86c4"/><ellipse cx="0" cy="-30" rx="34" ry="31" fill="#4aa8e0"/><ellipse cx="10" cy="-20" rx="21" ry="19" fill="#fde7a0"/><path d="M30 -46 L54 -48 L32 -36Z" fill="#f59e2a"/><path d="M30 -34 L50 -26 L30 -28Z" fill="#e0851a"/><path d="M10 -44 Q18 -52 26 -44" fill="none" stroke="#2b1d14" stroke-width="4" stroke-linecap="round"/><path d="M-4 -1 v9 M8 -1 v9" stroke="#f59e2a" stroke-width="4" stroke-linecap="round"/></g>
<g id="dr"><path d="M0 -18 Q-13 4 0 13 Q13 4 0 -18Z" fill="#bfeaff"/><circle cx="-3" cy="3" r="3" fill="#ffffff"/></g>
<g id="lf"><path d="M0 0 Q12 -16 28 0 Q12 16 0 0Z" fill="#6dbb58"/><path d="M2 0 L26 0" stroke="#3f8f3f" stroke-width="2"/></g>
<g id="sd"><path d="M0 0 L0 -26" stroke="#d9cfa8" stroke-width="2"/><ellipse cx="0" cy="2" rx="3" ry="6" fill="#8a6a3a"/><path d="M0 -26 L-15 -40 M0 -26 L-8 -45 M0 -26 L0 -47 M0 -26 L8 -45 M0 -26 L15 -40 M0 -26 L-19 -31 M0 -26 L19 -31" stroke="#ffffff" stroke-width="3" stroke-linecap="round"/></g>
<g id="hn"><path d="M-30 -8 Q-28 -30 0 -30 Q28 -30 30 -8 Q30 8 22 10 L22 34 Q22 44 15 44 Q8 44 8 34 L8 14 Q0 18 -6 14 L-6 26 Q-6 34 -12 34 Q-18 34 -18 26 L-18 10 Q-30 8 -30 -8Z" fill="#f5b82e"/><ellipse cx="-10" cy="-16" rx="9" ry="5" fill="#ffe08a"/></g>
<g id="fb"><path d="M-40 0 L40 0 M-22 -14 L-18 14 M-6 -17 L-2 17 M10 -15 L14 15 M26 -11 L29 11" stroke="#f3efe2" stroke-width="5" stroke-linecap="round" fill="none"/><path d="M40 0 L62 -15 L62 15Z" fill="#f3efe2"/><path d="M-40 0 L-62 -16 Q-74 0 -62 16Z" fill="#f3efe2"/><circle cx="-58" cy="-3" r="3" fill="#2b1d14"/></g>
<linearGradient id="tor" x1="0" y1="0" x2="0" y2="1"><stop offset="0" stop-color="#e2f7ff"/><stop offset="1" stop-color="#58b4e6"/></linearGradient>
<linearGradient id="rk" x1="0" y1="0" x2="0" y2="1"><stop offset="0" stop-color="#b4bcc6"/><stop offset="1" stop-color="#7b8490"/></linearGradient>
</defs>
<rect width="1200" height="900" fill="url(#sky)"/><g data-anim="spin"><polygon points="540 300 1440 300 1415 510" fill="#fff6c2" opacity="0.55"/><polygon points="540 300 1319 750 1192 919" fill="#fff6c2" opacity="0.55"/><polygon points="540 300 990 1079 795 1162" fill="#fff6c2" opacity="0.55"/><polygon points="540 300 540 1200 329 1175" fill="#fff6c2" opacity="0.55"/><polygon points="540 300 90 1079 -79 952" fill="#fff6c2" opacity="0.55"/><polygon points="540 300 -239 750 -322 555" fill="#fff6c2" opacity="0.55"/><polygon points="540 300 -360 300 -335 89" fill="#fff6c2" opacity="0.55"/><polygon points="540 300 -239 -149 -112 -319" fill="#fff6c2" opacity="0.55"/><polygon points="540 300 89 -479 284 -562" fill="#fff6c2" opacity="0.55"/><polygon points="540 300 539 -600 750 -575" fill="#fff6c2" opacity="0.55"/><polygon points="540 300 990 -479 1159 -352" fill="#fff6c2" opacity="0.55"/><polygon points="540 300 1319 -150 1402 44" fill="#fff6c2" opacity="0.55"/></g><circle cx="540" cy="300" r="250" fill="url(#sun)"/><circle cx="540" cy="300" r="190" fill="#fff3a8" opacity="0.8"/><path d="M0 340 C150 250 300 270 450 320 C600 250 800 240 950 300 C1050 270 1150 280 1200 300 L1200 460 L0 460Z" fill="#a8dcb0"/>
<path d="M0 390 C300 355 800 365 1200 392 L1200 480 L0 480Z" fill="#7cc46b"/>
<g transform="translate(140 400) scale(0.8)"><use href="#bi"/></g><g transform="translate(250 395) scale(0.55)"><use href="#bi"/></g><g transform="translate(880 398) scale(0.7)"><use href="#bi"/></g><g transform="translate(1010 402) scale(0.9)"><use href="#bi"/></g><g transform="translate(1130 400) scale(0.6)"><use href="#bi"/></g>
<path d="M0 452 C300 428 800 438 1200 456 L1200 900 L0 900Z" fill="url(#riv)"/>
<path d="M0 452 C300 428 800 438 1200 456 L1200 470 C800 452 300 444 0 468Z" fill="#5fae5a"/><path d="M620 500 h90 M1010 495 h80 M900 610 h110 M1060 680 h90 M940 830 h130" stroke="#ffffff" stroke-width="6" stroke-linecap="round" opacity="0.45"/><g transform="translate(960 720) scale(-1.1 1.1)"><g data-anim="swim" data-tap="jump"><use href="#fs"/></g></g><g transform="translate(1060 600) scale(-0.8 0.8)"><use href="#fv"/></g><g transform="translate(900 830) scale(-0.9 0.9)"><use href="#fq"/></g><path d="M0 612 C200 580 480 608 640 716 C724 772 764 840 776 900 L0 900Z" fill="#d9c58c"/><path d="M0 600 C200 568 470 596 626 704 C708 762 746 836 756 900 L0 900Z" fill="url(#gr)"/><path d="M70 300 Q180 262 310 246" stroke="#ece8da" stroke-width="16" stroke-linecap="round" fill="none"/>
<path d="M18 900 L36 0 L92 0 L86 900Z" fill="#f7f5ee"/><path d="M66 900 L78 0 L92 0 L86 900Z" fill="#e4e0d2"/>
<path d="M24 800 h30 M54 690 h26 M30 590 h26 M56 470 h24 M36 370 h24 M60 140 h22" stroke="#4a4a48" stroke-width="9" stroke-linecap="round"/>
<ellipse cx="40" cy="-10" rx="210" ry="100" fill="#6dbb58"/><ellipse cx="210" cy="10" rx="120" ry="66" fill="#86cf69"/><ellipse cx="120" cy="60" rx="70" ry="40" fill="#86cf69"/>
<g transform="translate(296 244) rotate(-30)"><use href="#lf"/></g><g transform="translate(150 268) rotate(-80)"><use href="#lf"/></g><g transform="translate(236 252) rotate(0) scale(1.4)"><g data-anim="bob" data-tap="jump"><use href="#bw"/></g></g><path d="M176 150 l-16 -22 M236 128 l0 -26 M296 150 l16 -22" stroke="#ffffff" stroke-width="6" stroke-linecap="round"/><g data-anim="sway" data-tap="wiggle"><g transform="translate(150 720) scale(1 1)"><use href="#dy"/></g><g transform="translate(200 740) scale(0.9 0.9)"><use href="#dc"/></g></g><g transform="translate(250 870) scale(1 1)"><use href="#dc"/></g><g transform="translate(190 885) scale(1 1)"><use href="#dy"/></g><g transform="translate(720 880) scale(0.9 0.9)"><use href="#dy"/></g><path d="M305 885 C290 770 380 706 500 702 C630 694 765 740 780 885Z" fill="url(#rk)"/><path d="M370 740 Q480 698 600 712 Q480 720 370 740 Z" fill="#cfd5dc" opacity="0.7"/><ellipse cx="710" cy="850" rx="46" ry="14" fill="#6dbb58"/><ellipse cx="350" cy="868" rx="30" ry="10" fill="#6dbb58"/><g transform="translate(26 24) scale(0.85)"><g data-anim="bob" data-tap="jump"><circle cx="455" cy="640" r="30" fill="#8f5626"/><ellipse cx="520" cy="745" rx="62" ry="50" fill="#8f5626"/><ellipse cx="690" cy="745" rx="62" ry="50" fill="#8f5626"/><ellipse cx="528" cy="762" rx="34" ry="24" fill="#e9c79b"/><ellipse cx="698" cy="762" rx="34" ry="24" fill="#e9c79b"/><path d="M745 492 L856 300" fill="none" stroke="#9c5f2c" stroke-width="74" stroke-linecap="round" stroke-linejoin="round"/><circle cx="858" cy="292" r="46" fill="#9c5f2c"/><ellipse cx="605" cy="590" rx="170" ry="185" fill="url(#fur)"/><ellipse cx="605" cy="620" rx="105" ry="120" fill="#e9c79b"/><path d="M468 492 Q372 560 462 640" fill="none" stroke="#9c5f2c" stroke-width="68" stroke-linecap="round" stroke-linejoin="round"/><circle cx="466" cy="640" r="38" fill="#9c5f2c"/><path d="M480 430 C560 470 650 470 730 430 L712 478 C650 500 560 500 498 478 Z" fill="#e63946"/><path d="M590 482 L640 482 L556 552 Z" fill="#c92a37"/><circle cx="482" cy="212" r="56" fill="#8f5626"/><circle cx="728" cy="212" r="56" fill="#8f5626"/><circle cx="482" cy="216" r="30" fill="#e9c79b"/><circle cx="728" cy="216" r="30" fill="#e9c79b"/><ellipse cx="605" cy="320" rx="165" ry="145" fill="url(#fur)"/><ellipse cx="605" cy="372" rx="78" ry="60" fill="#e9c79b"/><path d="M605 364 L605 386 M566 388 Q605 418 644 386" fill="none" stroke="#2b1d14" stroke-width="7" stroke-linecap="round" stroke-linejoin="round"/><ellipse cx="605" cy="346" rx="26" ry="18" fill="#2b1d14"/><ellipse cx="597" cy="340" rx="8" ry="4" fill="#6b5446"/><path d="M581 340 Q584 328 605 328 Q626 328 629 340 Q622 350 605 348 Q588 350 581 340Z" fill="#f5b82e"/><ellipse cx="596" cy="336" rx="8" ry="3" fill="#fff3c0"/><path d="M640 322 l5 -12 l5 12 l12 5 l-12 5 l-5 12 l-5 -12 l-12 -5Z" fill="#ffffff"/><ellipse cx="505" cy="360" rx="26" ry="17" fill="#f2a08a" opacity="0.7"/><ellipse cx="705" cy="360" rx="26" ry="17" fill="#f2a08a" opacity="0.7"/><g data-anim="blink"><circle cx="545" cy="300" r="26" fill="#ffffff"/><circle cx="665" cy="300" r="26" fill="#ffffff"/><circle cx="549" cy="300" r="16" fill="#2b1d14"/><circle cx="669" cy="300" r="16" fill="#2b1d14"/><circle cx="555" cy="293" r="6" fill="#ffffff"/><circle cx="675" cy="293" r="6" fill="#ffffff"/></g><path d="M514 240 C534 242 556 250 574 264 M636 264 C654 250 676 242 696 240" fill="none" stroke="#5e3716" stroke-width="9" stroke-linecap="round" stroke-linejoin="round"/></g></g><g data-anim="twinkle"><path d="M876 150 l7 -17 l7 17 l17 7 l-17 7 l-7 17 l-7 -17 l-17 -7Z" fill="#ffffff"/><path d="M360 170 l5 -13 l5 13 l13 5 l-13 5 l-5 13 l-5 -13 l-13 -5Z" fill="#ffffff"/><path d="M760 90 l5 -13 l5 13 l13 5 l-13 5 l-5 13 l-5 -13 l-13 -5Z" fill="#ffffff"/></g>
</svg>
