<svg xmlns="http://www.w3.org/2000/svg" viewBox="0 0 1200 900"><defs><radialGradient id="nanaFur" cx="0.45" cy="0.35" r="0.85"><stop offset="0" stop-color="#fffaf0"/><stop offset="1" stop-color="#ecdcc0"/></radialGradient><radialGradient id="nuniFur" cx="0.45" cy="0.35" r="0.85"><stop offset="0" stop-color="#c9c3cf"/><stop offset="1" stop-color="#9d95a8"/></radialGradient><radialGradient id="wall" cx="0.5" cy="0.45" r="0.75"><stop offset="0" stop-color="#f6cf93"/><stop offset="1" stop-color="#cf9257"/></radialGradient><linearGradient id="flo" x1="0" y1="0" x2="0" y2="1"><stop offset="0" stop-color="#b3743f"/><stop offset="1" stop-color="#8f5a30"/></linearGradient><linearGradient id="sky" x1="0" y1="0" x2="0" y2="1"><stop offset="0" stop-color="#8fd3f7"/><stop offset="1" stop-color="#e6f6d9"/></linearGradient><linearGradient id="cb" x1="0" y1="0" x2="0" y2="1"><stop offset="0" stop-color="#6a4126"/><stop offset="1" stop-color="#8a5a34"/></linearGradient><linearGradient id="pn" x1="0" y1="0" x2="0" y2="1"><stop offset="0" stop-color="#a3553a"/><stop offset="1" stop-color="#7c3c28"/></linearGradient><linearGradient id="gold" x1="0" y1="0" x2="0" y2="1"><stop offset="0" stop-color="#ffe07a"/><stop offset="1" stop-color="#d9a514"/></linearGradient></defs><rect width="1200" height="900" fill="url(#wall)"/><rect y="640" width="1200" height="260" fill="url(#flo)"/><rect y="624" width="1200" height="18" fill="#8a5430"/><path d="M0 718 H1200 M0 806 H1200 M260 640 L230 718 M700 640 L720 718 M1010 640 L1050 718 M470 718 L450 806 M900 718 L940 806 M150 806 L100 900 M640 806 L650 900 M1090 806 L1150 900" stroke="#7a4826" stroke-width="3" opacity="0.5" fill="none"/><path d="M0 0 H1200 V96 C1150 60 1100 78 1040 66 C960 50 900 84 820 62 C740 42 680 70 600 58 C500 44 440 80 350 60 C270 44 200 72 130 62 C80 56 30 70 0 104 Z" fill="#6f4326"/><path d="M300 58 q6 30 -4 52 M306 60 q14 14 12 30 M905 68 q-8 26 4 46 M900 70 q-14 10 -14 26 M610 56 q4 16 -2 30" fill="none" stroke="#6f4326" stroke-width="5" stroke-linecap="round"/><path d="M300 700 L1200 700 L1200 900 L180 900 Z" fill="#6a9a58"/><path d="M322 716 L1200 716 L1200 884 L212 884 Z" fill="#86b56a"/><path d="M340 732 L1200 732 M236 868 L1200 868" stroke="#f3e2b0" stroke-width="5" stroke-dasharray="18 16" opacity="0.8" fill="none"/><g transform="translate(-44 -6)"><path d="M452 104 L500 150 L548 104" fill="none" stroke="#7a5a44" stroke-width="3"/><rect x="430" y="150" width="140" height="150" rx="6" fill="#8a5430"/><rect x="444" y="164" width="112" height="122" fill="#fdf3e1"/><path d="M476 200 L524 200 L500 272 Z" fill="#f5861f"/><path d="M500 202 L486 180 M500 202 L500 174 M500 202 L514 180" stroke="#4fae4a" stroke-width="6" stroke-linecap="round" fill="none"/></g><ellipse cx="200" cy="706" rx="210" ry="16" fill="#3a2414" opacity="0.18"/><rect x="30" y="150" width="270" height="556" rx="14" fill="#a5683a"/><rect x="52" y="174" width="226" height="512" fill="url(#cb)"/><rect x="52" y="430" width="226" height="18" fill="#c98a52"/><rect x="52" y="448" width="226" height="8" fill="#4a2f1c" opacity="0.4"/><rect x="70" y="372" width="74" height="58" rx="6" fill="#e86a6a"/><rect x="64" y="362" width="86" height="16" rx="5" fill="#f3e2b0"/><path d="M88 174 V230 M70 262 L88 232 L106 262 Z" fill="none" stroke="#c9ccd4" stroke-width="5" stroke-linecap="round" stroke-linejoin="round"/><rect x="76" y="590" width="92" height="96" rx="8" fill="#4aa3c9"/><rect x="70" y="578" width="104" height="18" rx="6" fill="#7fd0e6"/><path d="M278 174 L210 174 M278 174 L278 250 M278 174 L226 232 M250 174 Q250 204 278 204 M222 174 Q226 228 278 232" fill="none" stroke="#e9dccb" stroke-width="2" opacity="0.8"/><path d="M300 150 L370 122 V744 L300 706 Z" fill="#b9783f"/><path d="M312 180 L358 162 V706 L312 682 Z" fill="#c98a52"/><circle cx="346" cy="440" r="11" fill="#f2c230"/><g data-anim="wiggle" data-tap="hide"><path d="M214 174 V330" stroke="#e9dccb" stroke-width="2"/><path d="M232 342 Q290 400 344 436" fill="none" stroke="#e9dccb" stroke-width="3"/><circle cx="214" cy="346" r="20" fill="#3a3a4a"/><path d="M198 338 l-20 -14 l-8 12 M198 352 l-22 8 l-4 14 M230 338 l18 -16 l10 8 M232 350 Q262 372 286 392" stroke="#3a3a4a" stroke-width="3" stroke-linecap="round" fill="none"/><circle cx="207" cy="344" r="5" fill="#ffffff"/><circle cx="223" cy="344" r="5" fill="#ffffff"/><path d="M201 330 L212 337 M227 330 L217 337" stroke="#ffffff" stroke-width="3" stroke-linecap="round"/><circle cx="210" cy="345" r="2" fill="#2b1d14"/><circle cx="222" cy="345" r="2" fill="#2b1d14"/><path d="M208 357 Q214 352 221 357" fill="none" stroke="#ffffff" stroke-width="2" stroke-linecap="round"/></g><ellipse cx="830" cy="806" rx="300" ry="22" fill="#3a2414" opacity="0.18"/><g transform="translate(0 40)"><path d="M560 420 L590 196 L1124 196 L1100 420 Z" fill="#6e3424"/><path d="M590 196 L1124 196 L1122 214 L588 214 Z" fill="#8f4a32"/><path d="M1010 420 L1058 214" stroke="#55281c" stroke-width="8" stroke-linecap="round"/><rect x="556" y="404" width="548" height="60" fill="#3a1d14"/><path d="M600 404 V452 M640 404 V452 M680 404 V452 M960 404 V452 M1000 404 V452 M1040 404 V452" stroke="#d9a514" stroke-width="3" opacity="0.7"/></g><g transform="translate(830 660) scale(0.95 0.95) translate(0 -436)"><g data-anim="bob" data-tap="wiggle"><ellipse cx="0" cy="260" rx="135" ry="160" fill="url(#nuniFur)"/><ellipse cx="0" cy="290" rx="78" ry="100" fill="#ffffff"/><g transform="rotate(-10 0 110)"><g transform="translate(-95 -40) rotate(72)"><path d="M-25 -10 C-85 20 -105 160 -85 300 C-79 350 -43 362 -25 320 C1 250 11 110 25 10 Z" fill="#b3acbc"/><path d="M-25 30 C-53 70 -63 160 -53 250 C-29 190 -13 100 -1 30 Z" fill="#f7c9c4"/></g><g transform="scale(-1 1)"><g transform="translate(-95 -40) rotate(4)"><path d="M-25 -10 C-85 20 -105 160 -85 300 C-79 350 -43 362 -25 320 C1 250 11 110 25 10 Z" fill="#b3acbc"/><path d="M-25 30 C-53 70 -63 160 -53 250 C-29 190 -13 100 -1 30 Z" fill="#f7c9c4"/></g></g><ellipse cx="0" cy="0" rx="135" ry="120" fill="url(#nuniFur)"/><path d="M-27 -108 C-20 -137 -2 -146 7 -121 C18 -144 36 -137 31 -106 Z" fill="#b3acbc"/><g transform="translate(-18 0)"><ellipse cx="0" cy="42" rx="62" ry="46" fill="#ffffff"/><ellipse cx="-82" cy="38" rx="24" ry="15" fill="#f7b3b0" opacity="0.7"/><ellipse cx="82" cy="38" rx="24" ry="15" fill="#f7b3b0" opacity="0.7"/><path d="M0 40 L0 52 M-12 62 Q2 56 16 62" fill="none" stroke="#4a4354" stroke-width="5" stroke-linecap="round"/><path d="M-14 22 L14 22 L0 40 Z" fill="#f08a9b"/><g data-anim="blink"><circle cx="-50" cy="-16" r="32" fill="#ffffff"/><circle cx="-66" cy="-18" r="13" fill="#2b1d14"/><circle cx="-62" cy="-23" r="4" fill="#ffffff"/><path d="M30 -22 L70 -10 M32 0 L70 -10" fill="none" stroke="#4a4354" stroke-width="8" stroke-linecap="round" stroke-linejoin="round"/></g><path d="M-72 -74 C-58 -84 -40 -84 -28 -76" fill="none" stroke="#6f6680" stroke-width="7" stroke-linecap="round" transform="rotate(-6 -50 -78)"/><g transform="scale(-1 1)"><path d="M-72 -44 C-58 -54 -40 -54 -28 -46" fill="none" stroke="#6f6680" stroke-width="7" stroke-linecap="round" transform="rotate(14 -50 -48)"/></g></g></g><path d="M-108 102 C-40 136 40 136 108 102 L94 144 C40 164 -40 164 -94 144 Z" fill="#f2c230"/><path d="M-14 148 L26 148 L8 210 Z" fill="#d9a514"/><ellipse cx="-98" cy="290" rx="33" ry="100" fill="#b3acbc" transform="rotate(128 -98 198)"/><g transform="scale(-1 1)"><ellipse cx="-98" cy="252" rx="33" ry="62" fill="#b3acbc" transform="rotate(10 -98 198)"/></g></g></g><g transform="translate(0 40)"><rect x="540" y="430" width="580" height="380" rx="10" fill="url(#pn)"/><rect x="540" y="430" width="580" height="22" rx="8" fill="#b96a48"/><rect x="576" y="474" width="508" height="92" rx="8" fill="#8a432c"/><path d="M740 520 q20 -30 40 0 q20 30 40 0 q20 -30 40 0 q20 30 40 0" fill="none" stroke="#d9a514" stroke-width="5" stroke-linecap="round" opacity="0.8"/><rect x="520" y="590" width="620" height="16" rx="6" fill="#b96a48"/><rect x="520" y="604" width="620" height="54" rx="6" fill="#8a432c"/><rect x="536" y="600" width="588" height="44" rx="4" fill="#fffaf0"/><path d="M564 600 V644 M592 600 V644 M620 600 V644 M648 600 V644 M676 600 V644 M704 600 V644 M732 600 V644 M760 600 V644 M788 600 V644 M816 600 V644 M844 600 V644 M872 600 V644 M900 600 V644 M928 600 V644 M956 600 V644 M984 600 V644 M1012 600 V644 M1040 600 V644 M1068 600 V644 M1096 600 V644 " stroke="#d8cdb8" stroke-width="2" fill="none"/><rect x="556" y="600" width="16" height="26" rx="2" fill="#2b1d14"/><rect x="584" y="600" width="16" height="26" rx="2" fill="#2b1d14"/><rect x="640" y="600" width="16" height="26" rx="2" fill="#2b1d14"/><rect x="668" y="600" width="16" height="26" rx="2" fill="#2b1d14"/><rect x="696" y="600" width="16" height="26" rx="2" fill="#2b1d14"/><rect x="752" y="600" width="16" height="26" rx="2" fill="#2b1d14"/><rect x="780" y="600" width="16" height="26" rx="2" fill="#2b1d14"/><rect x="836" y="600" width="16" height="26" rx="2" fill="#2b1d14"/><rect x="864" y="600" width="16" height="26" rx="2" fill="#2b1d14"/><rect x="892" y="600" width="16" height="26" rx="2" fill="#2b1d14"/><rect x="948" y="600" width="16" height="26" rx="2" fill="#2b1d14"/><rect x="976" y="600" width="16" height="26" rx="2" fill="#2b1d14"/><rect x="1032" y="600" width="16" height="26" rx="2" fill="#2b1d14"/><rect x="1060" y="600" width="16" height="26" rx="2" fill="#2b1d14"/><rect x="1088" y="600" width="16" height="26" rx="2" fill="#2b1d14"/><rect x="520" y="658" width="620" height="8" fill="#3a1d14" opacity="0.35"/><rect x="576" y="690" width="508" height="96" rx="8" fill="#8a432c"/><rect x="800" y="780" width="26" height="34" rx="6" fill="#d9a514"/><rect x="842" y="780" width="26" height="34" rx="6" fill="#d9a514"/><rect x="540" y="800" width="60" height="22" rx="6" fill="#6e3424"/><rect x="1060" y="800" width="60" height="22" rx="6" fill="#6e3424"/></g><g data-anim="float" data-tap="jump"><path d="M1130 230 C1144 280 1114 320 1136 370" fill="none" stroke="#7a5a44" stroke-width="3" stroke-linecap="round"/><path d="M1121 236 L1139 236 L1130 222 Z" fill="#37b8af"/><ellipse cx="1130" cy="170" rx="50" ry="60" fill="#37b8af"/><ellipse cx="1112" cy="148" rx="13" ry="20" fill="#b3ece6" opacity="0.8" transform="rotate(25 1112 148)"/></g><g data-anim="twinkle"><ellipse cx="1150" cy="560" rx="13" ry="10" fill="#5b2530" transform="rotate(-20 1150 560)"/><path d="M1161 557 V510 l20 10" fill="none" stroke="#5b2530" stroke-width="6" stroke-linecap="round" stroke-linejoin="round"/><ellipse cx="1160" cy="440" rx="13" ry="10" fill="#5b2530" transform="rotate(-20 1160 440)"/><path d="M1171 437 V390 l20 10" fill="none" stroke="#5b2530" stroke-width="6" stroke-linecap="round" stroke-linejoin="round"/><path d="M1150 636 l22 -8 M1152 656 l24 4" stroke="#fff6c9" stroke-width="7" stroke-linecap="round"/></g><ellipse cx="262" cy="852" rx="150" ry="12" fill="#3a2414" opacity="0.18"/><g data-tap="spin"><g transform="translate(262 812) rotate(-14)"><path d="M-150 -9 H40 L118 -46 V46 L40 9 H-150 Z" fill="url(#gold)"/><ellipse cx="118" cy="0" rx="13" ry="46" fill="#d9a514"/><ellipse cx="120" cy="0" rx="6" ry="34" fill="#8a6a10"/><rect x="-170" y="-13" width="26" height="26" rx="8" fill="#d9a514"/><path d="M-90 9 V34 Q-90 50 -74 50 H-10 Q6 50 6 34 V9" fill="none" stroke="#d9a514" stroke-width="10"/><rect x="-72" y="-34" width="14" height="30" rx="4" fill="#ffe07a"/><rect x="-48" y="-34" width="14" height="30" rx="4" fill="#ffe07a"/><rect x="-24" y="-34" width="14" height="30" rx="4" fill="#ffe07a"/><path d="M-130 -3 H20" stroke="#fff3b0" stroke-width="4" stroke-linecap="round"/></g></g><ellipse cx="500" cy="886" rx="100" ry="9" fill="#3a2414" opacity="0.18"/><g data-anim="wiggle" data-tap="jump"><path d="M424 760 Q424 740 444 740 H476 Q494 740 494 760 V806 Q560 806 574 836 Q578 852 560 852 H440 Q424 852 424 836 Z" fill="#e63946"/><path d="M520 812 Q560 814 574 836 Q578 852 560 852 H530 Q512 836 520 812 Z" fill="#fffaf0"/><rect x="420" y="736" width="78" height="18" rx="9" fill="#fffaf0"/><path d="M494 772 l-22 8 M494 790 l-22 8" stroke="#fffaf0" stroke-width="5" stroke-linecap="round"/><rect x="424" y="846" width="152" height="12" rx="5" fill="#44535f"/><circle cx="454" cy="868" r="17" fill="#ffd84a"/><circle cx="454" cy="868" r="6" fill="#d9a514"/><circle cx="546" cy="868" r="17" fill="#ffd84a"/><circle cx="546" cy="868" r="6" fill="#d9a514"/></g></svg>