<svg xmlns="http://www.w3.org/2000/svg" viewBox="0 0 1200 900"><defs><radialGradient id="nanaFur" cx="0.45" cy="0.35" r="0.85"><stop offset="0" stop-color="#fffaf0"/><stop offset="1" stop-color="#ecdcc0"/></radialGradient><radialGradient id="nuniFur" cx="0.45" cy="0.35" r="0.85"><stop offset="0" stop-color="#c9c3cf"/><stop offset="1" stop-color="#9d95a8"/></radialGradient><linearGradient id="sky" x1="0" y1="0" x2="0" y2="1"><stop offset="0" stop-color="#7cc8f2"/><stop offset="1" stop-color="#e3f6ee"/></linearGradient><linearGradient id="gr" x1="0" y1="0" x2="0" y2="1"><stop offset="0" stop-color="#93d873"/><stop offset="1" stop-color="#4fa64d"/></linearGradient><radialGradient id="sun" cx="0.5" cy="0.5" r="0.5"><stop offset="0" stop-color="#fff6c2"/><stop offset="0.55" stop-color="#ffe680"/><stop offset="1" stop-color="#ffe680" stop-opacity="0"/></radialGradient><radialGradient id="in" cx="0.5" cy="0.4" r="0.6"><stop offset="0" stop-color="#f0c088"/><stop offset="1" stop-color="#8a5a34"/></radialGradient><linearGradient id="pathg" x1="0" y1="0" x2="0" y2="1"><stop offset="0" stop-color="#f0dcae"/><stop offset="1" stop-color="#dcbf85"/></linearGradient><linearGradient id="dent" x1="0" y1="0" x2="0" y2="1"><stop offset="0" stop-color="#4a9646"/><stop offset="1" stop-color="#74c260"/></linearGradient><clipPath id="dc"><path d="M0 0 C110 -60 400 -150 610 -150 C676 -150 700 -80 700 0 C700 80 676 150 610 150 C400 150 110 60 0 0 Z"/></clipPath><clipPath id="nw"><path d="M300 100 H800 V452 H613 A78 78 0 0 1 457 452 H300 Z"/></clipPath></defs><rect width="1200" height="900" fill="url(#sky)"/><g data-anim="pulse"><circle cx="960" cy="130" r="120" fill="url(#sun)"/></g><g transform="translate(770 150) scale(1 1)"><g data-anim="drift"><ellipse cx="0" cy="0" rx="90" ry="34" fill="#ffffff"/><circle cx="-40" cy="-22" r="34" fill="#ffffff"/><circle cx="10" cy="-36" r="44" fill="#ffffff"/><circle cx="52" cy="-16" r="30" fill="#ffffff"/></g></g><g transform="translate(1110 250) scale(0.6 0.6)"><ellipse cx="0" cy="0" rx="90" ry="34" fill="#ffffff"/><circle cx="-40" cy="-22" r="34" fill="#ffffff"/><circle cx="10" cy="-36" r="44" fill="#ffffff"/><circle cx="52" cy="-16" r="30" fill="#ffffff"/></g><path d="M620 600 L790 330 L860 430 L1000 230 L1200 520 V620 H620 Z" fill="#a99bd0"/><path d="M1000 230 L1200 520 V620 H1040 L960 420 Z" fill="#9486c4"/><path d="M790 330 L860 430 L830 600 H700 Z" fill="#b9addb"/><path d="M400 600C560 540 700 570 820 550C960 530 1100 550 1200 540L1200 760L400 760Z" fill="#bfe3c8"/><path d="M560 700C700 590 900 580 1040 606C1120 620 1170 616 1200 610L1200 780L560 780Z" fill="#a7dd8a"/><path d="M-40 900 L-40 300 C60 110 430 80 610 290 C710 410 740 600 760 900 Z" fill="url(#gr)"/><path d="M40 300 C120 190 300 160 420 210" fill="none" stroke="#b6ec98" stroke-width="16" stroke-linecap="round" opacity="0.6"/><circle cx="200" cy="590" r="154" fill="#8a5a2b"/><circle cx="200" cy="590" r="139" fill="#c98a4b"/><path d="M130 470 V710 M200 451 V729 M270 470 V710" fill="none" stroke="#b17338" stroke-width="5" stroke-linecap="round"/><circle cx="200" cy="534" r="49" fill="#8a5a2b"/><circle cx="200" cy="534" r="42" fill="#ffe9a3"/><path d="M158 534 H242 M200 492 V576" fill="none" stroke="#8a5a2b" stroke-width="5" stroke-linecap="round"/><circle cx="284" cy="612" r="16" fill="#f2c230"/><circle cx="535" cy="452" r="96" fill="#8a5430"/><circle cx="535" cy="452" r="87" fill="#a5683a"/><circle cx="535" cy="452" r="78" fill="url(#in)"/><g clip-path="url(#nw)"><g transform="translate(535 628) scale(0.5 0.5) translate(0 -436)"><g data-anim="wiggle" data-tap="jump"><ellipse cx="0" cy="260" rx="135" ry="160" fill="url(#nanaFur)"/><ellipse cx="0" cy="290" rx="78" ry="100" fill="#ffffff"/><g transform="translate(-95 -40) rotate(150) scale(-1 1)"><path d="M-25 -10 C-85 20 -105 160 -85 300 C-79 350 -43 362 -25 320 C1 250 11 110 25 10 Z" fill="#f3e6cd"/><path d="M-53 210 C-61 270 -67 310 -53 336 C-37 330 -25 290 -19 230 Z" fill="#d9a066"/><path d="M-25 30 C-53 70 -63 160 -53 250 C-29 190 -13 100 -1 30 Z" fill="#f7c9c4"/></g><g transform="scale(-1 1)"><g transform="translate(-95 -40) rotate(168) scale(-1 1)"><path d="M-25 -10 C-85 20 -105 160 -85 300 C-79 350 -43 362 -25 320 C1 250 11 110 25 10 Z" fill="#f3e6cd"/><path d="M-53 210 C-61 270 -67 310 -53 336 C-37 330 -25 290 -19 230 Z" fill="#d9a066"/><path d="M-25 30 C-53 70 -63 160 -53 250 C-29 190 -13 100 -1 30 Z" fill="#f7c9c4"/></g></g><ellipse cx="0" cy="0" rx="135" ry="120" fill="url(#nanaFur)"/><g transform="translate(14 0)"><ellipse cx="0" cy="42" rx="62" ry="46" fill="#ffffff"/><ellipse cx="-82" cy="38" rx="24" ry="15" fill="#f7b3b0" opacity="0.7"/><ellipse cx="82" cy="38" rx="24" ry="15" fill="#f7b3b0" opacity="0.7"/><path d="M0 40 L0 54" fill="none" stroke="#5a4636" stroke-width="5" stroke-linecap="round"/><path d="M-32 52 Q0 60 32 52 Q30 96 0 98 Q-30 96 -32 52 Z" fill="#5b2530"/><ellipse cx="0" cy="88" rx="17" ry="9" fill="#f2859b"/><rect x="-10" y="54" width="20" height="15" rx="4" fill="#ffffff"/><path d="M-14 22 L14 22 L0 40 Z" fill="#f08a9b"/><g data-anim="blink"><circle cx="-50" cy="-16" r="32" fill="#ffffff"/><circle cx="-45" cy="-10" r="10" fill="#2b1d14"/><circle cx="-41" cy="-14" r="3" fill="#ffffff"/><circle cx="50" cy="-16" r="32" fill="#ffffff"/><circle cx="55" cy="-10" r="10" fill="#2b1d14"/><circle cx="59" cy="-14" r="3" fill="#ffffff"/></g><path d="M-72 -72 C-58 -82 -40 -82 -28 -74" fill="none" stroke="#b79a72" stroke-width="7" stroke-linecap="round" transform="rotate(-10 -50 -76)"/><g transform="scale(-1 1)"><path d="M-72 -72 C-58 -82 -40 -82 -28 -74" fill="none" stroke="#b79a72" stroke-width="7" stroke-linecap="round" transform="rotate(-10 -50 -76)"/></g></g><g transform="translate(40 -100) rotate(14)"><path d="M-56 4 Q0 24 56 4 L5 -132 Q0 -138 -5 -132 Z" fill="#e8508f"/><path d="M-56 4 Q0 24 56 4 L50 -12 Q0 6 -50 -12 Z" fill="#ffd84a"/><circle cx="-12" cy="-30" r="8" fill="#ffd84a"/><circle cx="16" cy="-52" r="7" fill="#ffffff"/><circle cx="-4" cy="-78" r="6" fill="#ffd84a"/><circle cx="24" cy="-18" r="6" fill="#ffffff"/><circle cx="0" cy="-136" r="16" fill="#ffd84a"/></g><path d="M-108 102 C-40 136 40 136 108 102 L94 144 C40 164 -40 164 -94 144 Z" fill="#2f80ed"/><path d="M-14 148 L26 148 L8 210 Z" fill="#1c5fc0"/><ellipse cx="-98" cy="252" rx="33" ry="62" fill="#f3e6cd" transform="rotate(40 -98 198)"/><g transform="scale(-1 1)"><ellipse cx="-98" cy="274" rx="33" ry="84" fill="#f3e6cd" transform="rotate(152 -98 198)"/></g></g></g></g><path d="M446 480 Q535 560 624 480 Q600 548 535 550 Q470 548 446 480 Z" fill="#8a5430"/><path d="M448 500 Q535 566 622 500 L628 514 Q535 584 442 514 Z" fill="#a5683a"/><path d="M660 330 l30 -14 M664 372 l34 2 M650 290 l22 -28" stroke="#ffffff" stroke-width="8" stroke-linecap="round" opacity="0.9"/><g data-anim="float" data-tap="jump"><path d="M284 612 C300 560 262 520 300 470 C318 446 320 430 326 414" fill="none" stroke="#7a5a44" stroke-width="3" stroke-linecap="round"/><path d="M317 420 L335 420 L326 406 Z" fill="#ef5b5b"/><ellipse cx="326" cy="354" rx="50" ry="60" fill="#ef5b5b"/><ellipse cx="308" cy="332" rx="13" ry="20" fill="#ffb3ad" opacity="0.8" transform="rotate(25 308 332)"/></g><path d="M-40 742 C200 716 480 664 700 668 C900 672 1100 650 1200 644 L1200 900 L-40 900 Z" fill="url(#gr)"/><path d="M120 742 C150 800 60 850 -40 866 L-40 900 L200 900 C300 840 330 780 290 728 Z" fill="url(#pathg)"/><g transform="translate(372 792) scale(1.0 0.56)"><path d="M0 0 C110 -60 400 -150 610 -150 C676 -150 700 -80 700 0 C700 80 676 150 610 150 C400 150 110 60 0 0 Z" fill="#3f8a41"/><circle cx="720" cy="-50" r="44" fill="#3f8a41"/><circle cx="764" cy="-110" r="36" fill="#3f8a41"/><circle cx="790" cy="-30" r="40" fill="#3f8a41"/><circle cx="730" cy="50" r="44" fill="#3f8a41"/><circle cx="780" cy="104" r="36" fill="#3f8a41"/><circle cx="800" cy="40" r="34" fill="#3f8a41"/><circle cx="720" cy="-36" r="36" fill="#62b054"/><circle cx="764" cy="-96" r="28" fill="#62b054"/><circle cx="790" cy="-16" r="32" fill="#62b054"/><circle cx="730" cy="64" r="36" fill="#62b054"/><circle cx="780" cy="118" r="28" fill="#62b054"/><circle cx="800" cy="54" r="26" fill="#62b054"/><g clip-path="url(#dc)"><path d="M0 0 C110 -60 400 -150 610 -150 C676 -150 700 -80 700 0 C700 80 676 150 610 150 C400 150 110 60 0 0 Z" fill="url(#dent)" transform="translate(4 34)"/><path d="M150 10Q166 26 150 44M250 60Q266 78 250 98M330 -30Q346 -10 330 12M430 60Q446 84 430 108M520 -40Q536 -14 520 12M600 80Q616 100 600 122M640 -70Q656 -50 640 -28" fill="none" stroke="#3f8a41" stroke-width="10" stroke-linecap="round" opacity="0.6"/></g><path d="M30 24 C130 70 400 158 610 160 C650 160 676 140 690 100" fill="none" stroke="#b6ec98" stroke-width="8" stroke-linecap="round" opacity="0.7"/></g><path d="M300 800 l-8 -24 M310 802 l2 -28 M320 800 l12 -22 M1140 676 l-6 -20 M1150 678 l4 -24 M640 690 l-8 -20 M650 692 l4 -24" stroke="#3f9c3a" stroke-width="5" stroke-linecap="round" fill="none"/><g data-anim="sway"><path d="M90 880 Q96 857 90 834" fill="none" stroke="#3f9c3a" stroke-width="5" stroke-linecap="round"/><circle cx="90" cy="822" r="9" fill="#f58fa8"/><circle cx="101" cy="830" r="9" fill="#f58fa8"/><circle cx="97" cy="844" r="9" fill="#f58fa8"/><circle cx="83" cy="844" r="9" fill="#f58fa8"/><circle cx="79" cy="830" r="9" fill="#f58fa8"/><circle cx="90" cy="834" r="6" fill="#ffd84a"/><path d="M150 842 Q156 824 150 806" fill="none" stroke="#3f9c3a" stroke-width="5" stroke-linecap="round"/><circle cx="150" cy="794" r="9" fill="#ffffff"/><circle cx="161" cy="802" r="9" fill="#ffffff"/><circle cx="157" cy="816" r="9" fill="#ffffff"/><circle cx="143" cy="816" r="9" fill="#ffffff"/><circle cx="139" cy="802" r="9" fill="#ffffff"/><circle cx="150" cy="806" r="6" fill="#ffd84a"/><path d="M330 884 Q336 863 330 842" fill="none" stroke="#3f9c3a" stroke-width="5" stroke-linecap="round"/><circle cx="330" cy="830" r="9" fill="#9b6fe0"/><circle cx="341" cy="838" r="9" fill="#9b6fe0"/><circle cx="337" cy="852" r="9" fill="#9b6fe0"/><circle cx="323" cy="852" r="9" fill="#9b6fe0"/><circle cx="319" cy="838" r="9" fill="#9b6fe0"/><circle cx="330" cy="842" r="6" fill="#ffd84a"/><path d="M470 730 Q476 715 470 700" fill="none" stroke="#3f9c3a" stroke-width="5" stroke-linecap="round"/><circle cx="470" cy="688" r="9" fill="#ffd84a"/><circle cx="481" cy="696" r="9" fill="#ffd84a"/><circle cx="477" cy="710" r="9" fill="#ffd84a"/><circle cx="463" cy="710" r="9" fill="#ffd84a"/><circle cx="459" cy="696" r="9" fill="#ffd84a"/><circle cx="470" cy="700" r="6" fill="#ffd84a"/></g><ellipse cx="800" cy="812" rx="120" ry="16" fill="#3a2414" opacity="0.22"/><g transform="translate(800 808) scale(0.78 0.78) translate(0 -436)"><g data-anim="bob" data-tap="wiggle"><circle cx="-115" cy="290" r="30" fill="#ffffff"/><ellipse cx="-70" cy="402" rx="60" ry="34" fill="#9d95a8"/><ellipse cx="70" cy="402" rx="60" ry="34" fill="#9d95a8"/><ellipse cx="0" cy="260" rx="135" ry="160" fill="url(#nuniFur)"/><ellipse cx="0" cy="290" rx="78" ry="100" fill="#ffffff"/><g transform="rotate(-5 0 110)"><g transform="translate(-95 -40) rotate(6)"><path d="M-25 -10 C-85 20 -105 160 -85 300 C-79 350 -43 362 -25 320 C1 250 11 110 25 10 Z" fill="#b3acbc"/><path d="M-25 30 C-53 70 -63 160 -53 250 C-29 190 -13 100 -1 30 Z" fill="#f7c9c4"/></g><g transform="scale(-1 1)"><g transform="translate(-95 -40) rotate(6)"><path d="M-25 -10 C-85 20 -105 160 -85 300 C-79 350 -43 362 -25 320 C1 250 11 110 25 10 Z" fill="#b3acbc"/><path d="M-25 30 C-53 70 -63 160 -53 250 C-29 190 -13 100 -1 30 Z" fill="#f7c9c4"/></g></g><ellipse cx="0" cy="0" rx="135" ry="120" fill="url(#nuniFur)"/><path d="M-27 -108 C-20 -137 -2 -146 7 -121 C18 -144 36 -137 31 -106 Z" fill="#b3acbc"/><g transform="translate(-28 -4)"><ellipse cx="0" cy="42" rx="62" ry="46" fill="#ffffff"/><ellipse cx="-82" cy="38" rx="24" ry="15" fill="#f7b3b0" opacity="0.7"/><ellipse cx="82" cy="38" rx="24" ry="15" fill="#f7b3b0" opacity="0.7"/><path d="M0 40 L0 52 M-34 56 Q0 82 34 56" fill="none" stroke="#4a4354" stroke-width="5" stroke-linecap="round"/><path d="M-14 22 L14 22 L0 40 Z" fill="#f08a9b"/><g data-anim="blink"><circle cx="-50" cy="-14" r="24" fill="#ffffff"/><circle cx="-58" cy="-19" r="15" fill="#2b1d14"/><circle cx="-52" cy="-26" r="5" fill="#ffffff"/><circle cx="50" cy="-14" r="24" fill="#ffffff"/><circle cx="42" cy="-19" r="15" fill="#2b1d14"/><circle cx="48" cy="-26" r="5" fill="#ffffff"/></g><path d="M-72 -70 C-58 -80 -40 -80 -28 -72" fill="none" stroke="#6f6680" stroke-width="7" stroke-linecap="round" transform="rotate(-12 -50 -74)"/><g transform="scale(-1 1)"><path d="M-72 -70 C-58 -80 -40 -80 -28 -72" fill="none" stroke="#6f6680" stroke-width="7" stroke-linecap="round" transform="rotate(-12 -50 -74)"/></g></g></g><path d="M-108 102 C-40 136 40 136 108 102 L94 144 C40 164 -40 164 -94 144 Z" fill="#f2c230"/><path d="M-14 148 L26 148 L8 210 Z" fill="#d9a514"/><ellipse cx="-98" cy="252" rx="33" ry="62" fill="#b3acbc" transform="rotate(8 -98 198)"/><g transform="scale(-1 1)"><ellipse cx="-98" cy="252" rx="33" ry="62" fill="#b3acbc" transform="rotate(8 -98 198)"/></g><g transform="translate(128 -70) rotate(20) scale(1.3 1.3)"><path d="M0 -16 C12 0 10 12 0 12 C-10 12 -12 0 0 -16 Z" fill="#7fd0f5"/><circle cx="-3" cy="4" r="2" fill="#ffffff"/></g></g></g><g transform="translate(560 800) scale(0.7 0.7)"><g data-anim="wiggle" data-tap="hide"><path d="M-50 0C-50-16-30-20-10-18L40-18C56-18 62-6 60 0Z" fill="#f2d7a0"/><path d="M52-14L62-44M40-16L44-46" fill="none" stroke="#f2d7a0" stroke-width="6" stroke-linecap="round" stroke-linejoin="round"/><circle cx="62" cy="-46" r="6" fill="#2b1d14"/><circle cx="44" cy="-48" r="6" fill="#2b1d14"/><circle cx="-8" cy="-34" r="34" fill="#d9764a"/><path d="M-8-34C-8-48 8-52 12-38C16-22-4-12-18-24C-32-38-22-60-2-62" fill="none" stroke="#a84f2c" stroke-width="6" stroke-linecap="round" stroke-linejoin="round"/></g></g></svg>