<svg xmlns="http://www.w3.org/2000/svg" viewBox="0 0 1200 900"><defs><radialGradient id="nanaFur" cx="0.45" cy="0.35" r="0.85"><stop offset="0" stop-color="#fffaf0"/><stop offset="1" stop-color="#ecdcc0"/></radialGradient>
<radialGradient id="nuniFur" cx="0.45" cy="0.35" r="0.85"><stop offset="0" stop-color="#c9c3cf"/><stop offset="1" stop-color="#9d95a8"/></radialGradient><radialGradient id="wall" cx="0.5" cy="0.45" r="0.75"><stop offset="0" stop-color="#f6cf93"/><stop offset="1" stop-color="#cf9257"/></radialGradient><linearGradient id="flo" x1="0" y1="0" x2="0" y2="1"><stop offset="0" stop-color="#b3743f"/><stop offset="1" stop-color="#8f5a30"/></linearGradient><linearGradient id="sky" x1="0" y1="0" x2="0" y2="1"><stop offset="0" stop-color="#8fd3f7"/><stop offset="1" stop-color="#e6f6d9"/></linearGradient></defs><rect width="1200" height="900" fill="url(#wall)"/><rect y="640" width="1200" height="260" fill="url(#flo)"/><rect y="624" width="1200" height="18" fill="#8a5430"/><path d="M0 718 H1200 M0 806 H1200 M260 640 L230 718 M700 640 L720 718 M1010 640 L1050 718 M470 718 L450 806 M900 718 L940 806 M150 806 L100 900 M640 806 L650 900 M1090 806 L1150 900" stroke="#7a4826" stroke-width="3" opacity="0.5" fill="none"/><path d="M0 0 H1200 V96 C1150 60 1100 78 1040 66 C960 50 900 84 820 62 C740 42 680 70 600 58 C500 44 440 80 350 60 C270 44 200 72 130 62 C80 56 30 70 0 104 Z" fill="#6f4326"/><path d="M300 58 q6 30 -4 52 M306 60 q14 14 12 30 M905 68 q-8 26 4 46 M900 70 q-14 10 -14 26 M610 56 q4 16 -2 30" fill="none" stroke="#6f4326" stroke-width="5" stroke-linecap="round"/><ellipse cx="560" cy="800" rx="560" ry="96" fill="#6a9a58"/><ellipse cx="560" cy="800" rx="538" ry="86" fill="#86b56a"/><ellipse cx="560" cy="800" rx="514" ry="75" fill="none" stroke="#f3e2b0" stroke-width="5" stroke-dasharray="18 16" opacity="0.8"/><clipPath id="wc"><circle cx="640" cy="250" r="90"/></clipPath><circle cx="640" cy="250" r="110" fill="#8a5430"/><circle cx="640" cy="250" r="99" fill="#a5683a"/><circle cx="640" cy="250" r="90" fill="url(#sky)"/><g clip-path="url(#wc)"><ellipse cx="610" cy="340" rx="90" ry="54" fill="#9bd27c"/><ellipse cx="700" cy="350" rx="90" ry="50" fill="#7cc060"/><ellipse cx="670" cy="210" rx="34" ry="13" fill="#ffffff"/><circle cx="690" cy="290" r="14" fill="#5fae4f"/></g><path d="M550 250 L730 250 M640 160 L640 340" stroke="#a5683a" stroke-width="9"/><path d="M520 354 Q640 374 760 354 L754 342 Q640 360 526 342 Z" fill="#8a5430"/><path d="M30 84 Q465 156 900 84" fill="none" stroke="#7a5a44" stroke-width="4"/><path d="M54 90 L102 90 L78 138 Z" fill="#ef5b5b"/><path d="M151 102 L199 102 L175 150 Z" fill="#ffd84a"/><path d="M248 111 L296 111 L272 159 Z" fill="#37b8af"/><path d="M344 116 L392 116 L368 164 Z" fill="#9b6fe0"/><path d="M441 118 L489 118 L465 166 Z" fill="#f58fa8"/><path d="M538 116 L586 116 L562 164 Z" fill="#4aa3e8"/><path d="M634 111 L682 111 L658 159 Z" fill="#ef5b5b"/><path d="M731 102 L779 102 L755 150 Z" fill="#ffd84a"/><path d="M828 90 L876 90 L852 138 Z" fill="#37b8af"/><g data-anim="float"><path d="M1005 287 C1019 337 989 377 1011 427" fill="none" stroke="#7a5a44" stroke-width="3" stroke-linecap="round"/><path d="M996 293 L1014 293 L1005 279 Z" fill="#ef5b5b"/><ellipse cx="1005" cy="227" rx="50" ry="60" fill="#ef5b5b"/><ellipse cx="987" cy="205" rx="13" ry="20" fill="#ffb3ad" opacity="0.8" transform="rotate(25 987 205)"/></g><g data-anim="float"><path d="M1137 295 C1151 345 1129 385 1151 435" fill="none" stroke="#7a5a44" stroke-width="3" stroke-linecap="round"/><path d="M1128 301 L1146 301 L1137 287 Z" fill="#9b6fe0"/><ellipse cx="1137" cy="235" rx="50" ry="60" fill="#9b6fe0"/><ellipse cx="1119" cy="213" rx="13" ry="20" fill="#d6c2f7" opacity="0.8" transform="rotate(25 1119 213)"/><path d="M1075 251 C1089 301 1053 341 1075 391" fill="none" stroke="#7a5a44" stroke-width="3" stroke-linecap="round"/><path d="M1066 257 L1084 257 L1075 243 Z" fill="#37b8af"/><ellipse cx="1075" cy="191" rx="50" ry="60" fill="#37b8af"/><ellipse cx="1057" cy="169" rx="13" ry="20" fill="#b3ece6" opacity="0.8" transform="rotate(25 1057 169)"/></g><g transform="translate(952 70)"><g data-anim="wiggle" data-tap="hide"><path d="M0 -10 C-4 20 16 30 12 56" fill="none" stroke="#f29aa8" stroke-width="20" stroke-linecap="round"/><path d="M-6 16 L10 20 M2 34 L18 36" stroke="#e07d90" stroke-width="3" stroke-linecap="round"/><circle cx="6" cy="50" r="4" fill="#2b1d14"/><circle cx="18" cy="52" r="4" fill="#2b1d14"/><path d="M6 62 Q13 68 19 63" fill="none" stroke="#2b1d14" stroke-width="3" stroke-linecap="round"/></g></g><ellipse cx="190" cy="742" rx="120" ry="19" fill="#3a2414" opacity="0.18"/><g transform="translate(190 610) scale(0.56 0.56)"><path d="M-150 20 L-170 250 L-146 250 L-110 30 Z M150 20 L170 250 L146 250 L110 30 Z" fill="#8a5430"/><path d="M-190 0 Q0 -34 190 0 L176 70 Q150 92 120 70 Q90 92 60 70 Q30 92 0 70 Q-30 92 -60 70 Q-90 92 -120 70 Q-150 92 -176 70 Z" fill="#fdf3e1"/><ellipse cx="0" cy="0" rx="190" ry="34" fill="#fffaf0"/><ellipse cx="0" cy="-2" rx="132" ry="22" fill="#e9d9bf"/><g data-tap="wiggle"><rect x="-112" y="-86" width="224" height="84" rx="16" fill="#f58fa8"/><path d="M-112 -70 Q-112 -92 -90 -92 L90 -92 Q112 -92 112 -70 L112 -56 Q98 -38 84 -56 Q70 -30 56 -56 Q42 -40 28 -56 Q14 -26 0 -56 Q-14 -40 -28 -56 Q-42 -30 -56 -56 Q-70 -40 -84 -56 Q-98 -34 -112 -56 Z" fill="#ffffff"/><rect x="-72" y="-150" width="144" height="64" rx="14" fill="#ffd9a8"/><path d="M-72 -136 Q-72 -154 -56 -154 L56 -154 Q72 -154 72 -136 L72 -126 Q60 -110 48 -126 Q36 -104 24 -126 Q12 -112 0 -126 Q-12 -104 -24 -126 Q-36 -112 -48 -126 Q-60 -108 -72 -126 Z" fill="#ffffff"/><circle cx="-80" cy="-28" r="6" fill="#ffd84a"/><circle cx="-40" cy="-22" r="6" fill="#7fd0f5"/><circle cx="0" cy="-28" r="6" fill="#ffd84a"/><circle cx="40" cy="-22" r="6" fill="#7fd0f5"/><circle cx="80" cy="-28" r="6" fill="#ffd84a"/><rect x="-53" y="-196" width="10" height="44" rx="3" fill="#4aa3e8"/><rect x="-29" y="-196" width="10" height="44" rx="3" fill="#ffd84a"/><rect x="-5" y="-196" width="10" height="44" rx="3" fill="#4aa3e8"/><rect x="19" y="-196" width="10" height="44" rx="3" fill="#ffd84a"/><rect x="43" y="-196" width="10" height="44" rx="3" fill="#4aa3e8"/><path d="M-60 -160 Q-40 -172 -22 -160 Q-14 -146 -26 -138 L-28 -116 Q-34 -108 -40 -116 L-40 -140 Q-64 -142 -60 -160 Z" fill="#f5861f"/><circle cx="46" cy="-112" r="13" fill="#f5861f"/><path d="M-96 -96 Q-80 -106 -66 -94 L-70 -60 Q-78 -52 -84 -62 Z" fill="#f5861f"/><circle cx="86" cy="-64" r="11" fill="#f5861f"/><circle cx="10" cy="-72" r="9" fill="#f5861f"/><circle cx="-130" cy="-6" r="10" fill="#f5861f"/><circle cx="140" cy="2" r="7" fill="#f5861f"/></g><g data-anim="pulse"><path d="M-48 -226 C-36 -210 -39 -198 -48 -198 C-57 -198 -60 -210 -48 -226 Z" fill="#ffb02e"/><circle cx="-48" cy="-205" r="4" fill="#fff3b0"/><path d="M-24 -226 C-12 -210 -15 -198 -24 -198 C-33 -198 -36 -210 -24 -226 Z" fill="#ffb02e"/><circle cx="-24" cy="-205" r="4" fill="#fff3b0"/><path d="M0 -226 C12 -210 9 -198 0 -198 C-9 -198 -12 -210 0 -226 Z" fill="#ffb02e"/><circle cx="0" cy="-205" r="4" fill="#fff3b0"/><path d="M24 -226 C36 -210 33 -198 24 -198 C15 -198 12 -210 24 -226 Z" fill="#ffb02e"/><circle cx="24" cy="-205" r="4" fill="#fff3b0"/><path d="M48 -226 C60 -210 57 -198 48 -198 C39 -198 36 -210 48 -226 Z" fill="#ffb02e"/><circle cx="48" cy="-205" r="4" fill="#fff3b0"/></g></g><ellipse cx="790" cy="742" rx="190" ry="16" fill="#3a2414" opacity="0.18"/><g transform="translate(800 672) rotate(-90) scale(0.9 0.9)"><path d="M-62 10 L-70 150 L-50 150 L-40 10 Z M62 10 L70 150 L50 150 L40 10 Z" fill="#3f8f88"/><path d="M-58 -210 Q0 -234 58 -210 L54 -10 L-54 -10 Z" fill="#4fa59d"/><path d="M-36 -184 Q0 -198 36 -184 L34 -60 L-34 -60 Z" fill="#7cc7bf"/><rect x="-72" y="-16" width="144" height="30" rx="10" fill="#5fb6ae"/></g><ellipse cx="470" cy="880" rx="330" ry="18" fill="#3a2414" opacity="0.18"/><g transform="translate(720 776) rotate(-90) scale(0.82 0.82) translate(0 -436)"><g data-anim="bob" data-tap="wiggle"><circle cx="-115" cy="290" r="30" fill="#fffaf0"/><ellipse cx="-74" cy="398" rx="60" ry="34" fill="#ecdcc0" transform="rotate(-24 -74 398)"/><ellipse cx="78" cy="392" rx="60" ry="34" fill="#ecdcc0" transform="rotate(30 78 392)"/><ellipse cx="0" cy="260" rx="135" ry="160" fill="url(#nanaFur)"/><ellipse cx="0" cy="290" rx="78" ry="100" fill="#ffffff"/><g transform="translate(-95 -40) rotate(174)"><path d="M-25 -10 C-85 20 -105 160 -85 300 C-79 350 -43 362 -25 320 C1 250 11 110 25 10 Z" fill="#f3e6cd"/><path d="M-53 210 C-61 270 -67 310 -53 336 C-37 330 -25 290 -19 230 Z" fill="#d9a066"/><path d="M-25 30 C-53 70 -63 160 -53 250 C-29 190 -13 100 -1 30 Z" fill="#f7c9c4"/></g><g transform="scale(-1 1)"><g transform="translate(-95 -40) rotate(118)"><path d="M-25 -10 C-85 20 -105 160 -85 300 C-79 350 -43 362 -25 320 C1 250 11 110 25 10 Z" fill="#f3e6cd"/><path d="M-53 210 C-61 270 -67 310 -53 336 C-37 330 -25 290 -19 230 Z" fill="#d9a066"/><path d="M-25 30 C-53 70 -63 160 -53 250 C-29 190 -13 100 -1 30 Z" fill="#f7c9c4"/></g></g><ellipse cx="0" cy="0" rx="135" ry="120" fill="url(#nanaFur)"/><ellipse cx="0" cy="42" rx="62" ry="46" fill="#ffffff"/><ellipse cx="-82" cy="38" rx="24" ry="15" fill="#f7b3b0" opacity="0.7"/><ellipse cx="82" cy="38" rx="24" ry="15" fill="#f7b3b0" opacity="0.7"/><ellipse cx="0" cy="80" rx="60" ry="46" fill="#ffffff"/><path d="M0 40 L0 48" fill="none" stroke="#5a4636" stroke-width="5" stroke-linecap="round"/><path d="M-46 48 Q0 58 46 48 Q48 116 0 118 Q-48 116 -46 48 Z" fill="#5b2530"/><path d="M-30 104 Q0 84 30 104 Q14 118 0 118 Q-14 118 -30 104 Z" fill="#f2859b"/><rect x="-12" y="51" width="24" height="18" rx="4" fill="#ffffff"/><path d="M-14 22 L14 22 L0 40 Z" fill="#f08a9b"/><g data-anim="blink"><path d="M-72 -6 Q-50 -34 -28 -6" fill="none" stroke="#5a4636" stroke-width="8" stroke-linecap="round"/><path d="M28 -6 Q50 -34 72 -6" fill="none" stroke="#5a4636" stroke-width="8" stroke-linecap="round"/></g><path d="M-72 -62 C-58 -72 -40 -72 -28 -64" fill="none" stroke="#b79a72" stroke-width="7" stroke-linecap="round" transform="rotate(-10 -50 -66)"/><g transform="scale(-1 1)"><path d="M-72 -62 C-58 -72 -40 -72 -28 -64" fill="none" stroke="#b79a72" stroke-width="7" stroke-linecap="round" transform="rotate(-10 -50 -66)"/></g><g transform="translate(-84 -84) rotate(-50) scale(1.2 1.2)"><path d="M0 -16 C12 0 10 12 0 12 C-10 12 -12 0 0 -16 Z" fill="#7fd0f5"/><circle cx="-3" cy="4" r="2" fill="#ffffff"/></g><g transform="translate(118 -74) rotate(50) scale(1.5 1.5)"><path d="M0 -16 C12 0 10 12 0 12 C-10 12 -12 0 0 -16 Z" fill="#7fd0f5"/><circle cx="-3" cy="4" r="2" fill="#ffffff"/></g><g transform="translate(160 -20) rotate(70)"><path d="M0 -16 C12 0 10 12 0 12 C-10 12 -12 0 0 -16 Z" fill="#7fd0f5"/><circle cx="-3" cy="4" r="2" fill="#ffffff"/></g><path d="M-108 102 C-40 136 40 136 108 102 L94 144 C40 164 -40 164 -94 144 Z" fill="#2f80ed"/><path d="M-14 148 L26 148 L8 210 Z" fill="#1c5fc0"/><g transform="translate(262 196) rotate(236)"><path d="M-42 44 C-40 62 -30 76 -12 78 C2 80 12 72 13 58 Z" fill="#fff3b8"/><path d="M-42 46 C-40 62 -30 76 -12 78 C2 80 12 72 13 60" fill="none" stroke="#f3d24a" stroke-width="5" stroke-linecap="round"/><path d="M-22 -98 C-52 -56 -58 4 -40 50 Q-30 38 -22 52 Q-12 40 -4 56 Q6 46 12 62 C8 10 16 -44 28 -96 Z" fill="#f5861f"/><path d="M10 -90 C2 -40 -2 10 2 52 Q8 48 12 62 C8 10 16 -44 28 -96 Z" fill="#dd6c10"/><path d="M-22 -78 C-44 -36 -44 6 -30 36" fill="none" stroke="#ffb05c" stroke-width="7" stroke-linecap="round"/><path d="M-22 -98 L-12 -116 L12 -116 L28 -96 Z" fill="#dd6c10"/><path d="M4 -98 L-16 -128 M4 -98 L6 -136 M4 -98 L26 -124" fill="none" stroke="#3f8f3a" stroke-width="5" stroke-linecap="round"/><circle cx="-20" cy="-132" r="11" fill="#4fae4a"/><circle cx="-8" cy="-140" r="10" fill="#63c257"/><circle cx="-26" cy="-146" r="9" fill="#63c257"/><circle cx="8" cy="-142" r="12" fill="#4fae4a"/><circle cx="-2" cy="-156" r="10" fill="#63c257"/><circle cx="18" cy="-156" r="10" fill="#4fae4a"/><circle cx="30" cy="-128" r="11" fill="#63c257"/><circle cx="40" cy="-140" r="9" fill="#4fae4a"/></g><ellipse cx="-98" cy="257" rx="33" ry="68" fill="#f3e6cd" transform="rotate(-48 -98 198)"/><g transform="scale(-1 1)"><ellipse cx="-98" cy="268" rx="33" ry="81" fill="#f3e6cd" transform="rotate(92 -98 198)"/></g></g></g><g transform="translate(150 800) rotate(-68) scale(0.7 0.7)"><path d="M-56 4 Q0 24 56 4 L5 -132 Q0 -138 -5 -132 Z" fill="#e8508f"/><path d="M-56 4 Q0 24 56 4 L50 -12 Q0 6 -50 -12 Z" fill="#ffd84a"/><circle cx="-12" cy="-30" r="8" fill="#ffd84a"/><circle cx="16" cy="-52" r="7" fill="#ffffff"/><circle cx="-4" cy="-78" r="6" fill="#ffd84a"/><circle cx="24" cy="-18" r="6" fill="#ffffff"/><circle cx="0" cy="-136" r="16" fill="#ffd84a"/></g><g data-anim="pulse"><path d="M260 580 q20 -26 50 -22 M400 600 q-6 -24 12 -40" fill="none" stroke="#fff6c9" stroke-width="8" stroke-linecap="round"/></g><ellipse cx="1020" cy="868" rx="130" ry="21" fill="#3a2414" opacity="0.18"/><g transform="translate(1020 866) scale(0.82 0.82) translate(0 -436)"><g data-anim="sway" data-tap="jump"><circle cx="-115" cy="290" r="30" fill="#ffffff"/><ellipse cx="-70" cy="402" rx="60" ry="34" fill="#9d95a8"/><ellipse cx="70" cy="402" rx="60" ry="34" fill="#9d95a8"/><ellipse cx="0" cy="260" rx="135" ry="160" fill="url(#nuniFur)"/><ellipse cx="0" cy="290" rx="78" ry="100" fill="#ffffff"/><g transform="rotate(-5 0 110)"><g transform="translate(-95 -40) rotate(0) scale(1 1.32)"><path d="M-25 -10 C-85 20 -105 160 -85 300 C-79 350 -43 362 -25 320 C1 250 11 110 25 10 Z" fill="#b3acbc"/><path d="M-25 30 C-53 70 -63 160 -53 250 C-29 190 -13 100 -1 30 Z" fill="#f7c9c4"/></g><g transform="scale(-1 1)"><g transform="translate(-95 -40) rotate(0) scale(1 1.32)"><path d="M-25 -10 C-85 20 -105 160 -85 300 C-79 350 -43 362 -25 320 C1 250 11 110 25 10 Z" fill="#b3acbc"/><path d="M-25 30 C-53 70 -63 160 -53 250 C-29 190 -13 100 -1 30 Z" fill="#f7c9c4"/></g></g><ellipse cx="0" cy="0" rx="135" ry="120" fill="url(#nuniFur)"/><path d="M-27 -108 C-20 -137 -2 -146 7 -121 C18 -144 36 -137 31 -106 Z" fill="#b3acbc"/><g transform="translate(-14 0)"><ellipse cx="0" cy="42" rx="62" ry="46" fill="#ffffff"/><ellipse cx="-82" cy="38" rx="24" ry="15" fill="#f7b3b0" opacity="0.7"/><ellipse cx="82" cy="38" rx="24" ry="15" fill="#f7b3b0" opacity="0.7"/><path d="M0 40 L0 52 M-16 56 Q0 68 16 56" fill="none" stroke="#4a4354" stroke-width="5" stroke-linecap="round"/><path d="M-14 22 L14 22 L0 40 Z" fill="#f08a9b"/><g data-anim="blink"><circle cx="-50" cy="-14" r="24" fill="#ffffff"/><circle cx="-59" cy="-8" r="15" fill="#2b1d14"/><circle cx="-53" cy="-15" r="5" fill="#ffffff"/><circle cx="50" cy="-14" r="24" fill="#ffffff"/><circle cx="41" cy="-8" r="15" fill="#2b1d14"/><circle cx="47" cy="-15" r="5" fill="#ffffff"/></g><path d="M-72 -56 C-58 -66 -40 -66 -28 -58" fill="none" stroke="#6f6680" stroke-width="7" stroke-linecap="round" transform="rotate(-20 -50 -60)"/><g transform="scale(-1 1)"><path d="M-72 -56 C-58 -66 -40 -66 -28 -58" fill="none" stroke="#6f6680" stroke-width="7" stroke-linecap="round" transform="rotate(-20 -50 -60)"/></g></g></g><path d="M-108 102 C-40 136 40 136 108 102 L94 144 C40 164 -40 164 -94 144 Z" fill="#f2c230"/><path d="M-14 148 L26 148 L8 210 Z" fill="#d9a514"/><ellipse cx="-98" cy="252" rx="33" ry="62" fill="#b3acbc" transform="rotate(-34 -98 198)"/><g transform="scale(-1 1)"><ellipse cx="-98" cy="252" rx="33" ry="62" fill="#b3acbc" transform="rotate(-34 -98 198)"/></g></g></g></svg>