<svg xmlns="http://www.w3.org/2000/svg" viewBox="0 0 1200 900">
<defs><radialGradient id="nanaFur" cx="0.45" cy="0.35" r="0.85"><stop offset="0" stop-color="#fffaf0"/><stop offset="1" stop-color="#ecdcc0"/></radialGradient><radialGradient id="nuniFur" cx="0.45" cy="0.35" r="0.85"><stop offset="0" stop-color="#c9c3cf"/><stop offset="1" stop-color="#9d95a8"/></radialGradient><linearGradient id="car" x1="0" y1="0" x2="0" y2="1"><stop offset="0" stop-color="#ffa63f"/><stop offset="1" stop-color="#e86f1c"/></linearGradient><linearGradient id="rk" x1="0" y1="0" x2="0" y2="1"><stop offset="0" stop-color="#a898cc"/><stop offset="1" stop-color="#7a6ba3"/></linearGradient><radialGradient id="cglow" cx="0.5" cy="0.5" r="0.5"><stop offset="0" stop-color="#ffb347" stop-opacity="0.8"/><stop offset="1" stop-color="#ffb347" stop-opacity="0"/></radialGradient><linearGradient id="mist" x1="0" y1="0" x2="0" y2="1"><stop offset="0" stop-color="#ffffff" stop-opacity="0"/><stop offset="1" stop-color="#ffffff" stop-opacity="0.9"/></linearGradient><linearGradient id="sky" x1="0" y1="0" x2="0" y2="1"><stop offset="0" stop-color="#6fc3ee"/><stop offset="1" stop-color="#e6f6f2"/></linearGradient></defs>
<rect x="0" y="0" width="1200" height="900" fill="url(#sky)"/><g transform="translate(300 100) scale(0.9 0.9)"><ellipse cx="0" cy="0" rx="90" ry="34" fill="#ffffff"/><circle cx="-40" cy="-22" r="34" fill="#ffffff"/><circle cx="10" cy="-36" r="44" fill="#ffffff"/><circle cx="52" cy="-16" r="30" fill="#ffffff"/></g><g transform="translate(700 170) scale(0.6 0.6)"><ellipse cx="0" cy="0" rx="90" ry="34" fill="#ffffff"/><circle cx="-40" cy="-22" r="34" fill="#ffffff"/><circle cx="10" cy="-36" r="44" fill="#ffffff"/><circle cx="52" cy="-16" r="30" fill="#ffffff"/></g><path d="M500 900L620 660L700 740L800 620L900 780L1000 900Z" fill="#c9bfe4" opacity="0.8"/><g transform="translate(1050 500) scale(0.86 0.86)"><circle cx="70" cy="-30" r="150" fill="url(#cglow)"/><g transform="translate(-70 60) rotate(-80) scale(0.36 0.36)"><g data-anim="sway"><path d="M970 0Q1038 -56 1125 -231" fill="none" stroke="#3f9c3a" stroke-width="16" stroke-linecap="round" stroke-linejoin="round"/><circle cx="1067" cy="-90" r="47" fill="#3f9c3a"/><circle cx="1023" cy="-118" r="47" fill="#3f9c3a"/><circle cx="1093" cy="-132" r="40" fill="#3f9c3a"/><circle cx="1049" cy="-160" r="40" fill="#3f9c3a"/><circle cx="1119" cy="-174" r="34" fill="#3f9c3a"/><circle cx="1075" cy="-201" r="34" fill="#3f9c3a"/><circle cx="1145" cy="-215" r="28" fill="#3f9c3a"/><circle cx="1101" cy="-243" r="28" fill="#3f9c3a"/><circle cx="1125" cy="-231" r="30" fill="#3f9c3a"/><path d="M970 0Q1053 43 1164 177" fill="none" stroke="#58b947" stroke-width="16" stroke-linecap="round" stroke-linejoin="round"/><circle cx="1045" cy="98" r="47" fill="#58b947"/><circle cx="1081" cy="61" r="47" fill="#58b947"/><circle cx="1078" cy="130" r="40" fill="#58b947"/><circle cx="1114" cy="93" r="40" fill="#58b947"/><circle cx="1111" cy="162" r="34" fill="#58b947"/><circle cx="1147" cy="125" r="34" fill="#58b947"/><circle cx="1144" cy="194" r="28" fill="#58b947"/><circle cx="1180" cy="157" r="28" fill="#58b947"/><circle cx="1164" cy="177" r="30" fill="#58b947"/><path d="M970 0Q1077 -34 1222 -140" fill="none" stroke="#7ccf5a" stroke-width="16" stroke-linecap="round" stroke-linejoin="round"/><circle cx="1102" cy="-40" r="47" fill="#7ccf5a"/><circle cx="1076" cy="-86" r="47" fill="#7ccf5a"/><circle cx="1146" cy="-66" r="40" fill="#7ccf5a"/><circle cx="1120" cy="-111" r="40" fill="#7ccf5a"/><circle cx="1189" cy="-91" r="34" fill="#7ccf5a"/><circle cx="1163" cy="-136" r="34" fill="#7ccf5a"/><circle cx="1233" cy="-116" r="28" fill="#7ccf5a"/><circle cx="1207" cy="-161" r="28" fill="#7ccf5a"/><circle cx="1222" cy="-140" r="30" fill="#7ccf5a"/><path d="M970 0Q1041 64 1133 265" fill="none" stroke="#3f9c3a" stroke-width="16" stroke-linecap="round" stroke-linejoin="round"/><circle cx="1026" cy="132" r="47" fill="#3f9c3a"/><circle cx="1071" cy="106" r="47" fill="#3f9c3a"/><circle cx="1054" cy="180" r="40" fill="#3f9c3a"/><circle cx="1099" cy="154" r="40" fill="#3f9c3a"/><circle cx="1082" cy="228" r="34" fill="#3f9c3a"/><circle cx="1127" cy="202" r="34" fill="#3f9c3a"/><circle cx="1109" cy="276" r="28" fill="#3f9c3a"/><circle cx="1154" cy="250" r="28" fill="#3f9c3a"/><circle cx="1133" cy="265" r="30" fill="#3f9c3a"/><path d="M970 0Q1071 22 1207 92" fill="none" stroke="#58b947" stroke-width="16" stroke-linecap="round" stroke-linejoin="round"/><circle cx="1072" cy="65" r="47" fill="#58b947"/><circle cx="1092" cy="17" r="47" fill="#58b947"/><circle cx="1113" cy="82" r="40" fill="#58b947"/><circle cx="1133" cy="34" r="40" fill="#58b947"/><circle cx="1154" cy="98" r="34" fill="#58b947"/><circle cx="1174" cy="50" r="34" fill="#58b947"/><circle cx="1195" cy="115" r="28" fill="#58b947"/><circle cx="1214" cy="67" r="28" fill="#58b947"/><circle cx="1207" cy="92" r="30" fill="#58b947"/><path d="M970 0Q1051 -41 1158 -172" fill="none" stroke="#7ccf5a" stroke-width="16" stroke-linecap="round" stroke-linejoin="round"/><circle cx="1078" cy="-59" r="47" fill="#7ccf5a"/><circle cx="1042" cy="-96" r="47" fill="#7ccf5a"/><circle cx="1110" cy="-89" r="40" fill="#7ccf5a"/><circle cx="1074" cy="-127" r="40" fill="#7ccf5a"/><circle cx="1142" cy="-120" r="34" fill="#7ccf5a"/><circle cx="1106" cy="-158" r="34" fill="#7ccf5a"/><circle cx="1174" cy="-151" r="28" fill="#7ccf5a"/><circle cx="1138" cy="-189" r="28" fill="#7ccf5a"/><circle cx="1158" cy="-172" r="30" fill="#7ccf5a"/><path d="M970 0Q1109 -8 1302 -34" fill="none" stroke="#3f9c3a" stroke-width="16" stroke-linecap="round" stroke-linejoin="round"/><circle cx="1128" cy="11" r="47" fill="#3f9c3a"/><circle cx="1122" cy="-41" r="47" fill="#3f9c3a"/><circle cx="1186" cy="5" r="40" fill="#3f9c3a"/><circle cx="1180" cy="-47" r="40" fill="#3f9c3a"/><circle cx="1244" cy="-2" r="34" fill="#3f9c3a"/><circle cx="1238" cy="-53" r="34" fill="#3f9c3a"/><circle cx="1302" cy="-8" r="28" fill="#3f9c3a"/><circle cx="1296" cy="-59" r="28" fill="#3f9c3a"/><circle cx="1302" cy="-34" r="30" fill="#3f9c3a"/></g><path d="M0 0L11 -10L22 -16L33 -21L44 -25L56 -28L67 -32L78 -35L89 -38L100 -41L111 -44L122 -46L133 -49L144 -51L156 -54L167 -56L178 -58L189 -60L200 -63L211 -65L222 -67L233 -69L244 -71L256 -73L267 -75L278 -77L289 -79L300 -81L311 -82L322 -84L333 -86L344 -88L356 -90L367 -91L378 -93L389 -95L400 -96L411 -98L422 -100L433 -101L444 -103L456 -104L467 -106L478 -108L489 -109L500 -111L511 -112L522 -114L533 -115L544 -117L556 -118L567 -120L578 -121L589 -122L600 -124L611 -125L622 -127L633 -128L644 -129L656 -131L667 -132L678 -134L689 -135L700 -136L711 -138L722 -139L733 -140L744 -142L756 -143L767 -144L778 -145L789 -147L800 -148L811 -149L822 -151L833 -152L844 -153L856 -154L867 -156L878 -156L889 -157L900 -158L911 -158L922 -157L933 -157L944 -156L956 -154L967 -152L978 -148L989 -143L1000 -128C1040 85 1040 102 1000 128L1000 128L967 152L933 157L900 158L867 156L833 152L800 148L767 144L733 140L700 136L667 132L633 128L600 124L567 120L533 115L500 111L467 106L433 101L400 96L367 91L333 86L300 81L267 75L233 69L200 63L167 56L133 49L100 41L67 32L33 21L0 0Z" fill="url(#car)"/><path d="M200 -19Q214 -9 200 0M330 30Q344 42 330 54M450 -52Q464 -39 450 -26M580 24Q594 42 580 61M700 -34Q714 -14 700 7M800 74Q814 90 800 107M900 -80Q914 -64 900 -48M520 70Q534 79 520 87M120 9Q134 16 120 23" fill="none" stroke="#d9601a" stroke-width="9" stroke-linecap="round" stroke-linejoin="round" opacity="0.55"/><path d="M180 -31Q500 -126 840 -119" fill="none" stroke="#ffd08a" stroke-width="16" stroke-linecap="round" stroke-linejoin="round" opacity="0.55"/></g><path d="M-330 900L-250 300L-190 60L-150 0L150 0L200 70L330 500L330 900Z" fill="url(#rk)"/><path d="M-150 0L150 0L200 70L130 60L-130 54L-190 60Z" fill="#b8abd6"/><path d="M-190 60L-130 54L-150 300L-200 900L-330 900L-250 300Z" fill="#7a6ba3" opacity="0.6"/><ellipse cx="70" cy="14" rx="78" ry="16" fill="#5a3f5e"/><ellipse cx="70" cy="16" rx="62" ry="10" fill="#ff8a3c"/><ellipse cx="70" cy="17" rx="40" ry="6" fill="#ffd15c"/><path d="M0 200L40 300L10 400M120 240L150 340" fill="none" stroke="#7a6ba3" stroke-width="7" stroke-linecap="round" stroke-linejoin="round" opacity="0.5"/></g><g data-anim="drift"><path d="M1110 500C1092 464 1126 438 1110 404C1098 378 1118 360 1114 342" fill="none" stroke="#ffffff" stroke-width="14" stroke-linecap="round" stroke-linejoin="round" opacity="0.7"/></g><g transform="translate(430 600) scale(1.2 1.2)"><path d="M-420 900L-420 30L-300 0L200 0L250 40L300 200L340 900Z" fill="url(#rk)"/><path d="M-300 0L200 0L250 40L170 44L-280 40L-420 60L-420 30Z" fill="#b8abd6"/><path d="M250 40L300 200L340 900L250 900L230 300L170 44Z" fill="#7a6ba3" opacity="0.6"/><path d="M-100 120L-60 220L-90 320M60 160L100 280" fill="none" stroke="#7a6ba3" stroke-width="7" stroke-linecap="round" stroke-linejoin="round" opacity="0.5"/></g><rect x="0" y="640" width="1200" height="260" fill="url(#mist)"/><g transform="translate(800 810)"><g data-anim="float" data-tap="wiggle"><g transform="translate(0 0) scale(1.5 1.5)"><ellipse cx="0" cy="0" rx="90" ry="34" fill="#ffffff"/><circle cx="-40" cy="-22" r="34" fill="#ffffff"/><circle cx="10" cy="-36" r="44" fill="#ffffff"/><circle cx="52" cy="-16" r="30" fill="#ffffff"/></g><g transform="translate(170 60) scale(1.3 1.3)"><ellipse cx="0" cy="0" rx="90" ry="34" fill="#ffffff"/><circle cx="-40" cy="-22" r="34" fill="#ffffff"/><circle cx="10" cy="-36" r="44" fill="#ffffff"/><circle cx="52" cy="-16" r="30" fill="#ffffff"/></g><g transform="translate(-130 70) scale(1.2 1.2)"><ellipse cx="0" cy="0" rx="90" ry="34" fill="#ffffff"/><circle cx="-40" cy="-22" r="34" fill="#ffffff"/><circle cx="10" cy="-36" r="44" fill="#ffffff"/><circle cx="52" cy="-16" r="30" fill="#ffffff"/></g></g></g><g transform="translate(36 0)"><path d="M588 604L600 548L640 524L684 540L700 604Z" fill="#8f7bb5"/><path d="M600 548L640 524L684 540L660 556L620 560Z" fill="#b8abd6"/></g><g transform="translate(682 476) scale(-0.8 0.8)"><g data-anim="bob" data-tap="jump"><path d="M-50 6L-96-14L-90 22Z" fill="#3a6fb8"/><ellipse cx="0" cy="0" rx="58" ry="42" fill="#4f8fe0"/><ellipse cx="8" cy="14" rx="34" ry="22" fill="#bfe0ff"/><path d="M54-8L92 2L54 14Z" fill="#ffb347"/><path d="M-10 40L-12 58M10 40L12 58" fill="none" stroke="#ffb347" stroke-width="5" stroke-linecap="round" stroke-linejoin="round"/><path d="M-34 14C-20-44 20-62 62-40C70-30 64-18 54-16C60-8 52 2 42 0C44 10 34 16 24 12C10 22-14 24-34 14Z" fill="#3a6fb8"/><path d="M-6-10C8-20 24-24 40-22" fill="none" stroke="#2f5fa0" stroke-width="4" stroke-linecap="round" stroke-linejoin="round"/><g transform="translate(96 -50) rotate(30) scale(0.9 0.9)"><path d="M0-22C10-8 14 0 14 8C14 18 8 24 0 24C-8 24-14 18-14 8C-14 0-10-8 0-22Z" fill="#8fd3f4"/><circle cx="-4" cy="10" r="4" fill="#ffffff" opacity="0.8"/></g></g></g><g transform="translate(70 622) scale(0.55 0.55)"><g data-anim="wiggle" data-tap="hide"><path d="M-50 0C-50-16-30-20-10-18L40-18C56-18 62-6 60 0Z" fill="#f2d7a0"/><path d="M52-14L62-44M40-16L44-46" fill="none" stroke="#f2d7a0" stroke-width="6" stroke-linecap="round" stroke-linejoin="round"/><circle cx="62" cy="-46" r="6" fill="#2b1d14"/><circle cx="44" cy="-48" r="6" fill="#2b1d14"/><circle cx="-8" cy="-34" r="34" fill="#d9764a"/><path d="M-8-34C-8-48 8-52 12-38C16-22-4-12-18-24C-32-38-22-60-2-62" fill="none" stroke="#a84f2c" stroke-width="6" stroke-linecap="round" stroke-linejoin="round"/></g></g><g transform="translate(420 640) scale(0.6 0.6)"><rect x="-10" y="-40" width="20" height="44" fill="#fdf3d8" rx="8"/><path d="M-44-36C-44-80 44-80 44-36Z" fill="#ff7fb0"/><circle cx="-18" cy="-52" r="7" fill="#ffffff"/><circle cx="10" cy="-60" r="8" fill="#ffffff"/><circle cx="24" cy="-44" r="5" fill="#ffffff"/></g><ellipse cx="296" cy="606" rx="120" ry="12" fill="#6b5a98" opacity="0.3"/><g transform="translate(296 604) rotate(-7) scale(0.56 0.56)"><g data-anim="spin" data-tap="spin"><circle cx="-115" cy="-146" r="30" fill="#fffaf0"/><rect x="-158" y="-300" width="316" height="170" rx="50" fill="#b83d36"/><ellipse cx="-10" cy="-26" rx="40" ry="56" fill="#ecdcc0" transform="rotate(6 -10 -26)"/><ellipse cx="104" cy="-92" rx="56" ry="34" fill="#ecdcc0" transform="rotate(-28 104 -92)"/><ellipse cx="0" cy="-176" rx="135" ry="160" fill="url(#nanaFur)"/><ellipse cx="0" cy="-146" rx="78" ry="100" fill="#ffffff"/><path d="M-74-300C-96-250-98-200-84-150M74-300C96-250 98-200 84-150" fill="none" stroke="#e2574c" stroke-width="20" stroke-linecap="round" stroke-linejoin="round"/><g transform="rotate(78 -95 -470)"><path d="M-120-486C-180-456-200-316-180-176C-174-126-138-114-120-156C-94-226-84-366-70-466Z" fill="#f3e6cd"/><path d="M-148-266C-156-206-162-166-148-140C-132-146-120-186-114-246Z" fill="#d9a066"/><path d="M-120-446C-148-406-158-316-148-226C-124-286-108-376-96-446Z" fill="#f7c9c4"/></g><g transform="scale(-1 1)"><g transform="rotate(100 -95 -470)"><path d="M-120-486C-180-456-200-316-180-176C-174-126-138-114-120-156C-94-226-84-366-70-466Z" fill="#f3e6cd"/><path d="M-148-266C-156-206-162-166-148-140C-132-146-120-186-114-246Z" fill="#d9a066"/><path d="M-120-446C-148-406-158-316-148-226C-124-286-108-376-96-446Z" fill="#f7c9c4"/></g></g><ellipse cx="0" cy="-436" rx="135" ry="120" fill="url(#nanaFur)"/><ellipse cx="0" cy="-386" rx="62" ry="56" fill="#ffffff"/><path d="M-14-414L14-414L0-396Z" fill="#f08a9b"/><path d="M0-396L0-388" fill="none" stroke="#5a4636" stroke-width="5" stroke-linecap="round" stroke-linejoin="round"/><ellipse cx="0" cy="-362" rx="22" ry="26" fill="#6b2f3a"/><ellipse cx="0" cy="-346" rx="14" ry="9" fill="#f08a9b"/><rect x="-10" y="-388" width="20" height="16" rx="4" fill="#ffffff" stroke="#d8cbb5" stroke-width="2"/><ellipse cx="-82" cy="-398" rx="24" ry="15" fill="#f7b3b0" opacity="0.7"/><ellipse cx="82" cy="-398" rx="24" ry="15" fill="#f7b3b0" opacity="0.7"/><g data-anim="blink"><circle cx="-50" cy="-450" r="27" fill="#ffffff"/><circle cx="50" cy="-450" r="27" fill="#ffffff"/><path d="M-48 -450L-48 -449L-48 -447L-50 -446L-52 -446L-55 -447L-56 -450L-56 -453L-54 -457L-50 -458L-46 -458L-42 -455L-39 -450L-40 -445L-43 -440L-49 -437L-56 -438L-62 -442L-65 -449L-64 -457L-59 -464L-51 -467L-42 -466L-35 -461L-31 -452L-32 -442" fill="none" stroke="#5a4636" stroke-width="5" stroke-linecap="round" stroke-linejoin="round"/><path d="M52 -450L52 -449L52 -447L50 -446L48 -446L45 -447L44 -450L44 -453L46 -457L50 -458L54 -458L58 -455L61 -450L60 -445L57 -440L51 -437L44 -438L38 -442L35 -449L36 -457L41 -464L49 -467L58 -466L65 -461L69 -452L68 -442" fill="none" stroke="#5a4636" stroke-width="5" stroke-linecap="round" stroke-linejoin="round"/></g><path d="M-74-502C-60-516-40-516-28-506M28-506C40-516 60-516 74-502" fill="none" stroke="#b79a72" stroke-width="7" stroke-linecap="round" stroke-linejoin="round"/><path d="M-108-334C-40-300 40-300 108-334L94-292C40-272-40-272-94-292Z" fill="#2f80ed"/><path d="M-14-288L26-288L8-226Z" fill="#1c5fc0"/><path d="M-100-222L-250 -270" fill="none" stroke="#f3e6cd" stroke-width="66" stroke-linecap="round" stroke-linejoin="round"/><path d="M100-222L250 -250" fill="none" stroke="#f3e6cd" stroke-width="66" stroke-linecap="round" stroke-linejoin="round"/><ellipse cx="0" cy="-250" rx="230" ry="46" fill="none" stroke="#ffffff" stroke-width="9" stroke-dasharray="150 180" stroke-linecap="round" opacity="0.95"/><ellipse cx="0" cy="-90" rx="170" ry="34" fill="none" stroke="#ffffff" stroke-width="6" stroke-dasharray="110 150" stroke-dashoffset="60" stroke-linecap="round" opacity="0.85"/><path d="M-300-420C-316-440-318-462-308-482M306-400C322-420 324-442 314-462" fill="none" stroke="#ffffff" stroke-width="7" stroke-linecap="round" stroke-linejoin="round" opacity="0.9"/><g transform="translate(-190 -600)"><path d="M0 -22L7 -7L22 0L7 7L0 22L-7 7L-22 0L-7 -7Z" fill="#ffd15c"/></g><g transform="translate(200 -610)"><path d="M0 -16L5 -5L16 0L5 5L0 16L-5 5L-16 0L-5 -5Z" fill="#ffd15c"/></g><g transform="translate(20 -640)"><path d="M0 -12L4 -4L12 0L4 4L0 12L-4 4L-12 0L-4 -4Z" fill="#ffd15c"/></g></g></g><ellipse cx="540" cy="606" rx="110" ry="12" fill="#6b5a98" opacity="0.3"/><g transform="translate(540 604) scale(0.534 0.534)"><g data-anim="bob" data-tap="wiggle"><circle cx="115" cy="-146" r="30" fill="#ffffff"/><rect x="-158" y="-300" width="316" height="170" rx="50" fill="#35873f"/><ellipse cx="-70" cy="-34" rx="60" ry="34" fill="#9d95a8"/><ellipse cx="70" cy="-34" rx="60" ry="34" fill="#9d95a8"/><ellipse cx="0" cy="-176" rx="135" ry="160" fill="url(#nuniFur)"/><ellipse cx="0" cy="-146" rx="78" ry="100" fill="#ffffff"/><path d="M-74-300C-96-250-98-200-84-150M74-300C96-250 98-200 84-150" fill="none" stroke="#4fae5a" stroke-width="20" stroke-linecap="round" stroke-linejoin="round"/><ellipse cx="0" cy="-436" rx="135" ry="120" fill="url(#nuniFur)"/><ellipse cx="0" cy="-394" rx="62" ry="46" fill="#ffffff"/><path d="M-14-414L14-414L0-396Z" fill="#f08a9b"/><path d="M0-396L0-386M-22-372Q0-390 22-372" fill="none" stroke="#4a4354" stroke-width="5" stroke-linecap="round" stroke-linejoin="round"/><ellipse cx="-82" cy="-398" rx="24" ry="15" fill="#f7b3b0" opacity="0.7"/><ellipse cx="82" cy="-398" rx="24" ry="15" fill="#f7b3b0" opacity="0.7"/><g data-anim="blink"><circle cx="-50" cy="-450" r="26" fill="#ffffff"/><circle cx="50" cy="-450" r="26" fill="#ffffff"/><circle cx="-38" cy="-459" r="13" fill="#2b1d14"/><circle cx="38" cy="-459" r="13" fill="#2b1d14"/><circle cx="-32" cy="-466" r="5" fill="#ffffff"/><circle cx="44" cy="-466" r="5" fill="#ffffff"/></g><path d="M-76-486L-30-502M30-502L76-486" fill="none" stroke="#6f6680" stroke-width="7" stroke-linecap="round" stroke-linejoin="round"/><ellipse cx="-74" cy="-606" rx="86" ry="50" fill="#b3acbc" transform="rotate(24 -74 -606)"/><ellipse cx="-74" cy="-606" rx="54" ry="26" fill="#f7c9c4" transform="rotate(24 -74 -606)"/><ellipse cx="74" cy="-606" rx="86" ry="50" fill="#b3acbc" transform="rotate(-24 74 -606)"/><ellipse cx="74" cy="-606" rx="54" ry="26" fill="#f7c9c4" transform="rotate(-24 74 -606)"/><path d="M-30-560C-70-540-110-520-134-470C-150-440-120-430-104-452C-80-490-50-520-10-540Z" fill="#b3acbc"/><path d="M30-560C70-540 110-520 134-470C150-440 120-430 104-452C80-490 50-520 10-540Z" fill="#b3acbc"/><circle cx="0" cy="-574" r="36" fill="#a59db0"/><path d="M-14-592C-4-580-4-566-14-556M14-592C4-580 4-566 14-556" fill="none" stroke="#8d8499" stroke-width="5" stroke-linecap="round" stroke-linejoin="round"/><path d="M-108-334C-40-300 40-300 108-334L94-292C40-272-40-272-94-292Z" fill="#f2c230"/><path d="M-14-288L26-288L8-226Z" fill="#d9a514"/><path d="M-100-222L-126 -150" fill="none" stroke="#b3acbc" stroke-width="66" stroke-linecap="round" stroke-linejoin="round"/><path d="M100-222L126 -150" fill="none" stroke="#b3acbc" stroke-width="66" stroke-linecap="round" stroke-linejoin="round"/></g></g>
</svg>
