<svg xmlns="http://www.w3.org/2000/svg" viewBox="0 0 1200 900">
<defs><radialGradient id="nanaFur" cx="0.45" cy="0.35" r="0.85"><stop offset="0" stop-color="#fffaf0"/><stop offset="1" stop-color="#ecdcc0"/></radialGradient><radialGradient id="nuniFur" cx="0.45" cy="0.35" r="0.85"><stop offset="0" stop-color="#c9c3cf"/><stop offset="1" stop-color="#9d95a8"/></radialGradient><radialGradient id="coat" cx="0.4" cy="0.3" r="0.9"><stop offset="0" stop-color="#b06d3c"/><stop offset="1" stop-color="#8a4f26"/></radialGradient><linearGradient id="car" x1="0" y1="0" x2="0" y2="1"><stop offset="0" stop-color="#ffa63f"/><stop offset="1" stop-color="#e86f1c"/></linearGradient><linearGradient id="carR" x1="0" y1="0" x2="0" y2="1"><stop offset="0" stop-color="#e98a35"/><stop offset="1" stop-color="#b9541a"/></linearGradient><linearGradient id="sky" x1="0" y1="0" x2="0" y2="1"><stop offset="0" stop-color="#5fb8ee"/><stop offset="1" stop-color="#e6f6f2"/></linearGradient><linearGradient id="rk" x1="0" y1="0" x2="0" y2="1"><stop offset="0" stop-color="#a898cc"/><stop offset="1" stop-color="#7a6ba3"/></linearGradient><radialGradient id="cglow" cx="0.5" cy="0.5" r="0.5"><stop offset="0" stop-color="#ffb347" stop-opacity="0.8"/><stop offset="1" stop-color="#ffb347" stop-opacity="0"/></radialGradient><linearGradient id="mist" x1="0" y1="0" x2="0" y2="1"><stop offset="0" stop-color="#ffffff" stop-opacity="0"/><stop offset="1" stop-color="#ffffff" stop-opacity="0.9"/></linearGradient></defs>
<rect x="0" y="0" width="1200" height="900" fill="url(#sky)"/><g transform="translate(1000 110) scale(0.8 0.8)"><ellipse cx="0" cy="0" rx="90" ry="34" fill="#ffffff"/><circle cx="-40" cy="-22" r="34" fill="#ffffff"/><circle cx="10" cy="-36" r="44" fill="#ffffff"/><circle cx="52" cy="-16" r="30" fill="#ffffff"/></g><g transform="translate(120 130) scale(0.6 0.6)"><ellipse cx="0" cy="0" rx="90" ry="34" fill="#ffffff"/><circle cx="-40" cy="-22" r="34" fill="#ffffff"/><circle cx="10" cy="-36" r="44" fill="#ffffff"/><circle cx="52" cy="-16" r="30" fill="#ffffff"/></g><path d="M300 900L440 700L520 780L640 660L760 800L860 900Z" fill="#c9bfe4" opacity="0.7"/><g transform="translate(1050 610) scale(0.68 0.68)"><circle cx="70" cy="-30" r="150" fill="url(#cglow)"/><g transform="translate(-70 60) rotate(-80) scale(0.36 0.36)"><g data-anim="sway"><path d="M970 0Q1038 -56 1125 -231" fill="none" stroke="#3f9c3a" stroke-width="16" stroke-linecap="round" stroke-linejoin="round"/><circle cx="1067" cy="-90" r="47" fill="#3f9c3a"/><circle cx="1023" cy="-118" r="47" fill="#3f9c3a"/><circle cx="1093" cy="-132" r="40" fill="#3f9c3a"/><circle cx="1049" cy="-160" r="40" fill="#3f9c3a"/><circle cx="1119" cy="-174" r="34" fill="#3f9c3a"/><circle cx="1075" cy="-201" r="34" fill="#3f9c3a"/><circle cx="1145" cy="-215" r="28" fill="#3f9c3a"/><circle cx="1101" cy="-243" r="28" fill="#3f9c3a"/><circle cx="1125" cy="-231" r="30" fill="#3f9c3a"/><path d="M970 0Q1053 43 1164 177" fill="none" stroke="#58b947" stroke-width="16" stroke-linecap="round" stroke-linejoin="round"/><circle cx="1045" cy="98" r="47" fill="#58b947"/><circle cx="1081" cy="61" r="47" fill="#58b947"/><circle cx="1078" cy="130" r="40" fill="#58b947"/><circle cx="1114" cy="93" r="40" fill="#58b947"/><circle cx="1111" cy="162" r="34" fill="#58b947"/><circle cx="1147" cy="125" r="34" fill="#58b947"/><circle cx="1144" cy="194" r="28" fill="#58b947"/><circle cx="1180" cy="157" r="28" fill="#58b947"/><circle cx="1164" cy="177" r="30" fill="#58b947"/><path d="M970 0Q1077 -34 1222 -140" fill="none" stroke="#7ccf5a" stroke-width="16" stroke-linecap="round" stroke-linejoin="round"/><circle cx="1102" cy="-40" r="47" fill="#7ccf5a"/><circle cx="1076" cy="-86" r="47" fill="#7ccf5a"/><circle cx="1146" cy="-66" r="40" fill="#7ccf5a"/><circle cx="1120" cy="-111" r="40" fill="#7ccf5a"/><circle cx="1189" cy="-91" r="34" fill="#7ccf5a"/><circle cx="1163" cy="-136" r="34" fill="#7ccf5a"/><circle cx="1233" cy="-116" r="28" fill="#7ccf5a"/><circle cx="1207" cy="-161" r="28" fill="#7ccf5a"/><circle cx="1222" cy="-140" r="30" fill="#7ccf5a"/><path d="M970 0Q1041 64 1133 265" fill="none" stroke="#3f9c3a" stroke-width="16" stroke-linecap="round" stroke-linejoin="round"/><circle cx="1026" cy="132" r="47" fill="#3f9c3a"/><circle cx="1071" cy="106" r="47" fill="#3f9c3a"/><circle cx="1054" cy="180" r="40" fill="#3f9c3a"/><circle cx="1099" cy="154" r="40" fill="#3f9c3a"/><circle cx="1082" cy="228" r="34" fill="#3f9c3a"/><circle cx="1127" cy="202" r="34" fill="#3f9c3a"/><circle cx="1109" cy="276" r="28" fill="#3f9c3a"/><circle cx="1154" cy="250" r="28" fill="#3f9c3a"/><circle cx="1133" cy="265" r="30" fill="#3f9c3a"/><path d="M970 0Q1071 22 1207 92" fill="none" stroke="#58b947" stroke-width="16" stroke-linecap="round" stroke-linejoin="round"/><circle cx="1072" cy="65" r="47" fill="#58b947"/><circle cx="1092" cy="17" r="47" fill="#58b947"/><circle cx="1113" cy="82" r="40" fill="#58b947"/><circle cx="1133" cy="34" r="40" fill="#58b947"/><circle cx="1154" cy="98" r="34" fill="#58b947"/><circle cx="1174" cy="50" r="34" fill="#58b947"/><circle cx="1195" cy="115" r="28" fill="#58b947"/><circle cx="1214" cy="67" r="28" fill="#58b947"/><circle cx="1207" cy="92" r="30" fill="#58b947"/><path d="M970 0Q1051 -41 1158 -172" fill="none" stroke="#7ccf5a" stroke-width="16" stroke-linecap="round" stroke-linejoin="round"/><circle cx="1078" cy="-59" r="47" fill="#7ccf5a"/><circle cx="1042" cy="-96" r="47" fill="#7ccf5a"/><circle cx="1110" cy="-89" r="40" fill="#7ccf5a"/><circle cx="1074" cy="-127" r="40" fill="#7ccf5a"/><circle cx="1142" cy="-120" r="34" fill="#7ccf5a"/><circle cx="1106" cy="-158" r="34" fill="#7ccf5a"/><circle cx="1174" cy="-151" r="28" fill="#7ccf5a"/><circle cx="1138" cy="-189" r="28" fill="#7ccf5a"/><circle cx="1158" cy="-172" r="30" fill="#7ccf5a"/><path d="M970 0Q1109 -8 1302 -34" fill="none" stroke="#3f9c3a" stroke-width="16" stroke-linecap="round" stroke-linejoin="round"/><circle cx="1128" cy="11" r="47" fill="#3f9c3a"/><circle cx="1122" cy="-41" r="47" fill="#3f9c3a"/><circle cx="1186" cy="5" r="40" fill="#3f9c3a"/><circle cx="1180" cy="-47" r="40" fill="#3f9c3a"/><circle cx="1244" cy="-2" r="34" fill="#3f9c3a"/><circle cx="1238" cy="-53" r="34" fill="#3f9c3a"/><circle cx="1302" cy="-8" r="28" fill="#3f9c3a"/><circle cx="1296" cy="-59" r="28" fill="#3f9c3a"/><circle cx="1302" cy="-34" r="30" fill="#3f9c3a"/></g><path d="M0 0L11 -10L22 -16L33 -21L44 -25L56 -28L67 -32L78 -35L89 -38L100 -41L111 -44L122 -46L133 -49L144 -51L156 -54L167 -56L178 -58L189 -60L200 -63L211 -65L222 -67L233 -69L244 -71L256 -73L267 -75L278 -77L289 -79L300 -81L311 -82L322 -84L333 -86L344 -88L356 -90L367 -91L378 -93L389 -95L400 -96L411 -98L422 -100L433 -101L444 -103L456 -104L467 -106L478 -108L489 -109L500 -111L511 -112L522 -114L533 -115L544 -117L556 -118L567 -120L578 -121L589 -122L600 -124L611 -125L622 -127L633 -128L644 -129L656 -131L667 -132L678 -134L689 -135L700 -136L711 -138L722 -139L733 -140L744 -142L756 -143L767 -144L778 -145L789 -147L800 -148L811 -149L822 -151L833 -152L844 -153L856 -154L867 -156L878 -156L889 -157L900 -158L911 -158L922 -157L933 -157L944 -156L956 -154L967 -152L978 -148L989 -143L1000 -128C1040 85 1040 102 1000 128L1000 128L967 152L933 157L900 158L867 156L833 152L800 148L767 144L733 140L700 136L667 132L633 128L600 124L567 120L533 115L500 111L467 106L433 101L400 96L367 91L333 86L300 81L267 75L233 69L200 63L167 56L133 49L100 41L67 32L33 21L0 0Z" fill="url(#car)"/><path d="M200 -19Q214 -9 200 0M330 30Q344 42 330 54M450 -52Q464 -39 450 -26M580 24Q594 42 580 61M700 -34Q714 -14 700 7M800 74Q814 90 800 107M900 -80Q914 -64 900 -48M520 70Q534 79 520 87M120 9Q134 16 120 23" fill="none" stroke="#d9601a" stroke-width="9" stroke-linecap="round" stroke-linejoin="round" opacity="0.55"/><path d="M180 -31Q500 -126 840 -119" fill="none" stroke="#ffd08a" stroke-width="16" stroke-linecap="round" stroke-linejoin="round" opacity="0.55"/></g><path d="M-330 900L-250 300L-190 60L-150 0L150 0L200 70L330 500L330 900Z" fill="url(#rk)"/><path d="M-150 0L150 0L200 70L130 60L-130 54L-190 60Z" fill="#b8abd6"/><path d="M-190 60L-130 54L-150 300L-200 900L-330 900L-250 300Z" fill="#7a6ba3" opacity="0.6"/><ellipse cx="70" cy="14" rx="78" ry="16" fill="#5a3f5e"/><ellipse cx="70" cy="16" rx="62" ry="10" fill="#ff8a3c"/><ellipse cx="70" cy="17" rx="40" ry="6" fill="#ffd15c"/><path d="M0 200L40 300L10 400M120 240L150 340" fill="none" stroke="#7a6ba3" stroke-width="7" stroke-linecap="round" stroke-linejoin="round" opacity="0.5"/></g><g transform="translate(70 760) scale(0.8 0.8)"><path d="M-420 900L-420 30L-300 0L200 0L250 40L300 200L340 900Z" fill="url(#rk)"/><path d="M-300 0L200 0L250 40L170 44L-280 40L-420 60L-420 30Z" fill="#b8abd6"/><path d="M250 40L300 200L340 900L250 900L230 300L170 44Z" fill="#7a6ba3" opacity="0.6"/><path d="M-100 120L-60 220L-90 320M60 160L100 280" fill="none" stroke="#7a6ba3" stroke-width="7" stroke-linecap="round" stroke-linejoin="round" opacity="0.5"/></g><rect x="0" y="620" width="1200" height="280" fill="url(#mist)"/><g><g data-anim="float" data-tap="wiggle"><g transform="translate(380 850) scale(1.6 1.6)"><ellipse cx="0" cy="0" rx="90" ry="34" fill="#ffffff"/><circle cx="-40" cy="-22" r="34" fill="#ffffff"/><circle cx="10" cy="-36" r="44" fill="#ffffff"/><circle cx="52" cy="-16" r="30" fill="#ffffff"/></g><g transform="translate(640 880) scale(1.5 1.5)"><ellipse cx="0" cy="0" rx="90" ry="34" fill="#ffffff"/><circle cx="-40" cy="-22" r="34" fill="#ffffff"/><circle cx="10" cy="-36" r="44" fill="#ffffff"/><circle cx="52" cy="-16" r="30" fill="#ffffff"/></g><g transform="translate(860 850) scale(1.2 1.2)"><ellipse cx="0" cy="0" rx="90" ry="34" fill="#ffffff"/><circle cx="-40" cy="-22" r="34" fill="#ffffff"/><circle cx="10" cy="-36" r="44" fill="#ffffff"/><circle cx="52" cy="-16" r="30" fill="#ffffff"/></g></g></g><path d="M110 580C160 560 200 560 240 570M90 640C150 626 190 626 230 636M420 740C470 726 510 726 550 736" fill="none" stroke="#ffffff" stroke-width="8" stroke-linecap="round" stroke-linejoin="round" opacity="0.8"/><g transform="translate(130 400) scale(0.85 0.85)"><g data-anim="float" data-tap="jump"><path d="M-50 6L-96-14L-90 22Z" fill="#3a6fb8"/><ellipse cx="0" cy="0" rx="58" ry="42" fill="#4f8fe0"/><ellipse cx="8" cy="14" rx="34" ry="22" fill="#bfe0ff"/><path d="M-10-30C-40-90-80-90-96-70C-70-60-50-30-30-6Z" fill="#3a6fb8"/><path d="M54-8L92 2L54 14Z" fill="#ffb347"/><circle cx="30" cy="-14" r="16" fill="#ffffff"/><circle cx="34" cy="-14" r="7" fill="#2b1d14"/><path d="M16-40L40-40" fill="none" stroke="#2b1d14" stroke-width="4" stroke-linecap="round" stroke-linejoin="round"/><ellipse cx="64" cy="14" rx="6" ry="8" fill="#6b2f3a"/></g></g><g transform="translate(70 500) rotate(30)"><path d="M0 0C14-10 34-8 44 4C30 10 12 10 0 0Z" fill="#4f8fe0"/><path d="M4 0L40 4" fill="none" stroke="#bfe0ff" stroke-width="3" stroke-linecap="round" stroke-linejoin="round"/></g><g transform="translate(410 700) rotate(-5) scale(0.64 0.64)"><g data-anim="float" data-tap="jump"><circle cx="-115" cy="-146" r="30" fill="#fffaf0"/><rect x="-158" y="-300" width="316" height="170" rx="50" fill="#b83d36"/><ellipse cx="-64" cy="-30" rx="36" ry="58" fill="#ecdcc0" transform="rotate(12 -64 -30)"/><ellipse cx="64" cy="-22" rx="36" ry="58" fill="#ecdcc0" transform="rotate(-16 64 -22)"/><ellipse cx="0" cy="-176" rx="135" ry="160" fill="url(#nanaFur)"/><ellipse cx="0" cy="-146" rx="78" ry="100" fill="#ffffff"/><path d="M-74-300C-96-250-98-200-84-150M74-300C96-250 98-200 84-150" fill="none" stroke="#e2574c" stroke-width="20" stroke-linecap="round" stroke-linejoin="round"/><ellipse cx="0" cy="-436" rx="135" ry="120" fill="url(#nanaFur)"/><ellipse cx="0" cy="-394" rx="62" ry="46" fill="#ffffff"/><path d="M-14-414L14-414L0-396Z" fill="#f08a9b"/><path d="M0-396L0-388" fill="none" stroke="#5a4636" stroke-width="5" stroke-linecap="round" stroke-linejoin="round"/><path d="M-36-388Q0-326 36-388Z" fill="#6b2f3a"/><ellipse cx="0" cy="-362" rx="16" ry="9" fill="#f08a9b"/><rect x="-10" y="-388" width="20" height="16" rx="4" fill="#ffffff" stroke="#d8cbb5" stroke-width="2"/><ellipse cx="-82" cy="-398" rx="24" ry="15" fill="#f7b3b0" opacity="0.7"/><ellipse cx="82" cy="-398" rx="24" ry="15" fill="#f7b3b0" opacity="0.7"/><g data-anim="blink"><path d="M-72-440Q-50-468-28-440M28-440Q50-468 72-440" fill="none" stroke="#5a4636" stroke-width="7" stroke-linecap="round" stroke-linejoin="round"/></g><path d="M-74-502C-60-516-40-516-28-506M28-506C40-516 60-516 74-502" fill="none" stroke="#b79a72" stroke-width="7" stroke-linecap="round" stroke-linejoin="round"/><g data-anim="wiggle"><path d="M-36-536C-22-580-10-598 0-616C10-598 22-580 36-536Z" fill="#f3e6cd"/><path d="M-14-560L10-572M-9-580L8-590" fill="none" stroke="#b79a72" stroke-width="4" stroke-linecap="round" stroke-linejoin="round" opacity="0.6"/><ellipse cx="0" cy="-632" rx="262" ry="60" fill="#f3e6cd" opacity="0.32"/><ellipse cx="0" cy="-632" rx="222" ry="48" fill="#ffffff" opacity="0.3"/><ellipse cx="-84" cy="-610" rx="88" ry="19" fill="#f3e6cd" transform="rotate(12 -84 -610)" opacity="0.5"/><ellipse cx="84" cy="-654" rx="80" ry="16" fill="#f3e6cd" transform="rotate(12 84 -654)" opacity="0.5"/><ellipse cx="92" cy="-612" rx="84" ry="18" fill="#f3e6cd" transform="rotate(-12 92 -612)" opacity="0.35"/><ellipse cx="-92" cy="-652" rx="76" ry="15" fill="#f3e6cd" transform="rotate(-12 -92 -652)" opacity="0.35"/><path d="M0-646C-90-674-215-670-250-642C-266-624-236-608-196-608C-120-606-50-610 0-618Z" fill="#f3e6cd"/><path d="M-190-668C-230-664-262-646-256-630C-246-612-214-608-186-608C-204-626-204-648-190-668Z" fill="#d9a066"/><path d="M-30-640C-90-654-150-652-182-638C-150-628-90-626-30-628Z" fill="#f7c9c4"/><g transform="scale(-1 1)"><path d="M0-646C-90-674-215-670-250-642C-266-624-236-608-196-608C-120-606-50-610 0-618Z" fill="#f3e6cd"/><path d="M-190-668C-230-664-262-646-256-630C-246-612-214-608-186-608C-204-626-204-648-190-668Z" fill="#d9a066"/><path d="M-30-640C-90-654-150-652-182-638C-150-628-90-626-30-628Z" fill="#f7c9c4"/></g><ellipse cx="0" cy="-632" rx="246" ry="55" fill="none" stroke="#ffffff" stroke-width="5" stroke-dasharray="110 150" stroke-linecap="round" opacity="0.8"/><ellipse cx="0" cy="-632" rx="200" ry="42" fill="none" stroke="#ffffff" stroke-width="4" stroke-dasharray="70 190" stroke-dashoffset="90" stroke-linecap="round" opacity="0.7"/><ellipse cx="0" cy="-632" rx="22" ry="12" fill="#b79a72"/><path d="M-290-600C-300-612-304-624-302-636M290-664C300-652 304-640 302-628" fill="none" stroke="#ffffff" stroke-width="6" stroke-linecap="round" stroke-linejoin="round" opacity="0.85"/></g><path d="M-108-334C-40-300 40-300 108-334L94-292C40-272-40-272-94-292Z" fill="#2f80ed"/><path d="M-14-288L26-288L8-226Z" fill="#1c5fc0"/><path d="M-100-222L-210 -260" fill="none" stroke="#f3e6cd" stroke-width="66" stroke-linecap="round" stroke-linejoin="round"/><path d="M100-222L210 -270" fill="none" stroke="#f3e6cd" stroke-width="66" stroke-linecap="round" stroke-linejoin="round"/></g></g><g transform="translate(740 610) rotate(9) scale(0.6045200000000001 0.6045200000000001)"><g data-anim="float" data-tap="wiggle"><circle cx="115" cy="-146" r="30" fill="#ffffff"/><rect x="-158" y="-300" width="316" height="170" rx="50" fill="#35873f"/><ellipse cx="-64" cy="-30" rx="36" ry="58" fill="#9d95a8" transform="rotate(12 -64 -30)"/><ellipse cx="64" cy="-22" rx="36" ry="58" fill="#9d95a8" transform="rotate(-16 64 -22)"/><ellipse cx="0" cy="-176" rx="135" ry="160" fill="url(#nuniFur)"/><ellipse cx="0" cy="-146" rx="78" ry="100" fill="#ffffff"/><path d="M-74-300C-96-250-98-200-84-150M74-300C96-250 98-200 84-150" fill="none" stroke="#4fae5a" stroke-width="20" stroke-linecap="round" stroke-linejoin="round"/><ellipse cx="0" cy="-436" rx="135" ry="120" fill="url(#nuniFur)"/><path d="M-27-548C-20-575-2-584 7-559C18-582 36-575 31-546Z" fill="#b3acbc"/><ellipse cx="0" cy="-394" rx="62" ry="46" fill="#ffffff"/><path d="M-14-414L14-414L0-396Z" fill="#f08a9b"/><path d="M0-396L0-388" fill="none" stroke="#4a4354" stroke-width="5" stroke-linecap="round" stroke-linejoin="round"/><path d="M-36-388Q0-326 36-388Z" fill="#6b2f3a"/><ellipse cx="0" cy="-362" rx="16" ry="9" fill="#f08a9b"/><rect x="-10" y="-388" width="20" height="16" rx="4" fill="#ffffff" stroke="#cfc8d8" stroke-width="2"/><ellipse cx="-82" cy="-398" rx="24" ry="15" fill="#f7b3b0" opacity="0.7"/><ellipse cx="82" cy="-398" rx="24" ry="15" fill="#f7b3b0" opacity="0.7"/><g data-anim="blink"><circle cx="-50" cy="-450" r="29" fill="#ffffff"/><circle cx="50" cy="-450" r="29" fill="#ffffff"/><circle cx="-46" cy="-442" r="17" fill="#2b1d14"/><circle cx="54" cy="-442" r="17" fill="#2b1d14"/><circle cx="-39" cy="-450" r="5" fill="#ffffff"/><circle cx="61" cy="-450" r="5" fill="#ffffff"/></g><path d="M-78-494L-28-514M28-514L78-494" fill="none" stroke="#6f6680" stroke-width="7" stroke-linecap="round" stroke-linejoin="round"/><g data-anim="wiggle"><path d="M-36-536C-22-580-10-598 0-616C10-598 22-580 36-536Z" fill="#b3acbc"/><path d="M-14-560L10-572M-9-580L8-590" fill="none" stroke="#6f6680" stroke-width="4" stroke-linecap="round" stroke-linejoin="round" opacity="0.6"/><ellipse cx="0" cy="-632" rx="262" ry="60" fill="#b3acbc" opacity="0.32"/><ellipse cx="0" cy="-632" rx="222" ry="48" fill="#ffffff" opacity="0.3"/><ellipse cx="-84" cy="-610" rx="88" ry="19" fill="#b3acbc" transform="rotate(12 -84 -610)" opacity="0.5"/><ellipse cx="84" cy="-654" rx="80" ry="16" fill="#b3acbc" transform="rotate(12 84 -654)" opacity="0.5"/><ellipse cx="92" cy="-612" rx="84" ry="18" fill="#b3acbc" transform="rotate(-12 92 -612)" opacity="0.35"/><ellipse cx="-92" cy="-652" rx="76" ry="15" fill="#b3acbc" transform="rotate(-12 -92 -652)" opacity="0.35"/><path d="M0-646C-90-674-215-670-250-642C-266-624-236-608-196-608C-120-606-50-610 0-618Z" fill="#b3acbc"/><path d="M-30-640C-90-654-150-652-182-638C-150-628-90-626-30-628Z" fill="#f7c9c4"/><g transform="scale(-1 1)"><path d="M0-646C-90-674-215-670-250-642C-266-624-236-608-196-608C-120-606-50-610 0-618Z" fill="#b3acbc"/><path d="M-30-640C-90-654-150-652-182-638C-150-628-90-626-30-628Z" fill="#f7c9c4"/></g><ellipse cx="0" cy="-632" rx="246" ry="55" fill="none" stroke="#ffffff" stroke-width="5" stroke-dasharray="110 150" stroke-linecap="round" opacity="0.8"/><ellipse cx="0" cy="-632" rx="200" ry="42" fill="none" stroke="#ffffff" stroke-width="4" stroke-dasharray="70 190" stroke-dashoffset="90" stroke-linecap="round" opacity="0.7"/><ellipse cx="0" cy="-632" rx="22" ry="12" fill="#6f6680"/><path d="M-290-600C-300-612-304-624-302-636M290-664C300-652 304-640 302-628" fill="none" stroke="#ffffff" stroke-width="6" stroke-linecap="round" stroke-linejoin="round" opacity="0.85"/></g><path d="M-108-334C-40-300 40-300 108-334L94-292C40-272-40-272-94-292Z" fill="#f2c230"/><path d="M-14-288L26-288L8-226Z" fill="#d9a514"/><path d="M-100-222L-200 -300" fill="none" stroke="#b3acbc" stroke-width="66" stroke-linecap="round" stroke-linejoin="round"/><path d="M100-222L210 -200" fill="none" stroke="#b3acbc" stroke-width="66" stroke-linecap="round" stroke-linejoin="round"/><path d="M-250-200C-270-180-270-150-250-130M250-200C270-180 270-150 250-130" fill="none" stroke="#ffffff" stroke-width="8" stroke-linecap="round" stroke-linejoin="round" opacity="0.8"/></g></g>
</svg>
