<svg xmlns="http://www.w3.org/2000/svg" viewBox="0 0 1200 900">
<defs><radialGradient id="nanaFur" cx="0.45" cy="0.35" r="0.85"><stop offset="0" stop-color="#fffaf0"/><stop offset="1" stop-color="#ecdcc0"/></radialGradient><radialGradient id="nuniFur" cx="0.45" cy="0.35" r="0.85"><stop offset="0" stop-color="#c9c3cf"/><stop offset="1" stop-color="#9d95a8"/></radialGradient><radialGradient id="coat" cx="0.4" cy="0.3" r="0.9"><stop offset="0" stop-color="#b06d3c"/><stop offset="1" stop-color="#8a4f26"/></radialGradient><linearGradient id="car" x1="0" y1="0" x2="0" y2="1"><stop offset="0" stop-color="#ffa63f"/><stop offset="1" stop-color="#e86f1c"/></linearGradient><linearGradient id="carR" x1="0" y1="0" x2="0" y2="1"><stop offset="0" stop-color="#e98a35"/><stop offset="1" stop-color="#b9541a"/></linearGradient><linearGradient id="sky" x1="0" y1="0" x2="0" y2="1"><stop offset="0" stop-color="#8cc7e8"/><stop offset="1" stop-color="#ffd9a8"/></linearGradient><linearGradient id="rk" x1="0" y1="0" x2="0" y2="1"><stop offset="0" stop-color="#b8abd6"/><stop offset="1" stop-color="#8676b0"/></linearGradient><radialGradient id="cglow" cx="0.5" cy="0.5" r="0.5"><stop offset="0" stop-color="#ff8a3c" stop-opacity="0.85"/><stop offset="1" stop-color="#ff8a3c" stop-opacity="0"/></radialGradient></defs>
<rect x="0" y="0" width="1200" height="900" fill="url(#sky)"/><path d="M0 610L90 520L170 580L300 460L420 570L560 500L700 590L860 480L980 560L1100 490L1200 550L1200 670L0 670Z" fill="#c9bfe4" opacity="0.75"/><rect x="0" y="590" width="1200" height="60" fill="#ffffff" opacity="0.5"/><circle cx="170" cy="610" r="260" fill="url(#cglow)"/><g><g data-anim="pulse"><circle cx="150" cy="520" r="60" fill="#8d8496"/><circle cx="230" cy="470" r="70" fill="#a39aab"/><circle cx="120" cy="400" r="80" fill="#b9b1c0"/><circle cx="220" cy="330" r="74" fill="#cfc8d6"/><circle cx="110" cy="250" r="66" fill="#e0dbe6"/><circle cx="210" cy="180" r="54" fill="#efecf2"/><circle cx="140" cy="110" r="40" fill="#f7f5f9"/></g></g><path d="M0 650C200 620 400 630 600 624C800 618 1000 630 1200 646L1200 900L0 900Z" fill="url(#rk)"/><path d="M100 820L160 860M900 800L980 830L1010 880M420 850L470 880" fill="none" stroke="#7a6ba3" stroke-width="7" stroke-linecap="round" stroke-linejoin="round" opacity="0.45"/><ellipse cx="170" cy="646" rx="170" ry="30" fill="#4a2944"/><ellipse cx="170" cy="650" rx="140" ry="20" fill="#ff8a3c"/><ellipse cx="170" cy="652" rx="90" ry="11" fill="#ffd15c"/><path d="M330 690L400 720L380 770L460 800L440 860M900 700L960 740L930 790L1010 830M600 850L650 880M60 760L130 800L110 850" fill="none" stroke="#4a3a70" stroke-width="9" stroke-linecap="round" stroke-linejoin="round" opacity="0.8"/><path d="M250 300L224 280L250 260L224 240M1090 330L1116 310L1090 290L1116 270M1130 560L1160 548L1136 530L1166 518M60 560L90 548L64 530" fill="none" stroke="#ffffff" stroke-width="9" stroke-linecap="round" stroke-linejoin="round" opacity="0.9"/><g transform="translate(1040 760)"><g data-anim="wiggle" data-tap="jump"><path d="M0 0L26-10L40 12L16 26Z" fill="#7a6ba3"/><path d="M90-60L112-70L120-48L98-40Z" fill="#9b8cc0"/><path d="M-520 20L-498 6L-482 26L-506 38Z" fill="#7a6ba3"/><path d="M-700-30L-684-44L-668-28L-686-14Z" fill="#9b8cc0"/></g></g><g transform="translate(860 836) scale(0.9 0.9)"><g data-anim="wiggle" data-tap="jump"><path d="M186-350C262-362 312-250 280-100C246-150 218-236 176-292Z" fill="#4b2a16"/><path d="M120-220L124-40" fill="none" stroke="#774320" stroke-width="56" stroke-linecap="round" stroke-linejoin="round"/><path d="M-104-220L-100-40" fill="none" stroke="#774320" stroke-width="56" stroke-linecap="round" stroke-linejoin="round"/><rect x="92" y="-40" width="64" height="40" rx="12" fill="#2c1c10"/><rect x="-132" y="-40" width="64" height="40" rx="12" fill="#2c1c10"/><path d="M-143 -328L-52 -411L-160 -377Z" fill="#4b2a16"/><path d="M-159 -374L-69 -457L-176 -423Z" fill="#4b2a16"/><path d="M-175 -420L-85 -503L-192 -469Z" fill="#4b2a16"/><path d="M-191 -466L-101 -549L-208 -515Z" fill="#4b2a16"/><path d="M-207 -511L-117 -595L-225 -561Z" fill="#4b2a16"/><path d="M-224 -557L-133 -641L-241 -606Z" fill="#4b2a16"/><ellipse cx="0" cy="-270" rx="215" ry="125" fill="url(#coat)"/><ellipse cx="-140" cy="-290" rx="112" ry="122" fill="url(#coat)"/><ellipse cx="140" cy="-282" rx="112" ry="122" fill="url(#coat)"/><path d="M34-392C10-310 14-220 40-150" fill="none" stroke="#6b46b8" stroke-width="14" stroke-linecap="round" stroke-linejoin="round"/><rect x="2" y="-446" width="76" height="66" rx="18" fill="#8a63d2"/><path d="M2-424C2-440 10-446 20-446L60-446C70-446 78-440 78-424C60-410 20-410 2-424Z" fill="#6b46b8"/><circle cx="40" cy="-412" r="7" fill="#f2c230"/><path d="M176-230L184-40" fill="none" stroke="#96582c" stroke-width="62" stroke-linecap="round" stroke-linejoin="round"/><rect x="150" y="-42" width="72" height="42" rx="12" fill="#3b2718"/><path d="M-140 -320L-235 -590" fill="none" stroke="#96582c" stroke-width="116" stroke-linecap="round" stroke-linejoin="round"/><g transform="translate(-235 -590) rotate(-6)"><path d="M-80-44C-108-104-98-140-74-152C-54-128-40-96-34-64Z" fill="#96582c"/><path d="M-74-70C-88-104-84-124-74-134C-62-116-54-96-52-74Z" fill="#e6b79a"/><g transform="scale(-1 1)"><path d="M-80-44C-108-104-98-140-74-152C-54-128-40-96-34-64Z" fill="#96582c"/><path d="M-74-70C-88-104-84-124-74-134C-62-116-54-96-52-74Z" fill="#e6b79a"/></g><ellipse cx="0" cy="0" rx="92" ry="84" fill="url(#coat)"/><path d="M-90-10C-90 60-84 96-76 110L76 110C84 96 90 60 90-10Z" fill="#96582c"/><ellipse cx="0" cy="104" rx="82" ry="70" fill="#e6c3a0"/><path d="M-16-82C-24-40-28 0-44 52C-20 40 20 40 44 52C28 0 24-40 16-82C6-87-6-87-16-82Z" fill="#ffffff"/><path d="M-40-70L-56-150L-22-96L-6-176L8-96L44-158L40-70Z" fill="#4b2a16"/><g data-anim="blink"><circle cx="-44" cy="-8" r="29" fill="#ffffff"/><circle cx="44" cy="-8" r="29" fill="#ffffff"/><circle cx="-48" cy="-8" r="9" fill="#2b1d14"/><circle cx="40" cy="-8" r="9" fill="#2b1d14"/><circle cx="-43" cy="-14" r="4" fill="#ffffff"/><circle cx="45" cy="-14" r="4" fill="#ffffff"/></g><path d="M-70-48L-26-66M26-66L70-48" fill="none" stroke="#4b2a16" stroke-width="7" stroke-linecap="round" stroke-linejoin="round"/><ellipse cx="-68" cy="40" rx="20" ry="13" fill="#f2a08a" opacity="0.6"/><ellipse cx="68" cy="40" rx="20" ry="13" fill="#f2a08a" opacity="0.6"/><ellipse cx="-26" cy="78" rx="8" ry="11" fill="#5a3a26"/><ellipse cx="26" cy="78" rx="8" ry="11" fill="#5a3a26"/><ellipse cx="0" cy="128" rx="46" ry="36" fill="#6b2f3a"/><ellipse cx="0" cy="148" rx="26" ry="12" fill="#f08a9b"/><rect x="-30" y="94" width="60" height="26" rx="6" fill="#ffffff" stroke="#d8cbb5" stroke-width="2"/><path d="M0 96L0 118" fill="none" stroke="#d8cbb5" stroke-width="3" stroke-linecap="round" stroke-linejoin="round"/></g><path d="M-176-250L-420 -300" fill="none" stroke="#96582c" stroke-width="62" stroke-linecap="round" stroke-linejoin="round"/><path d="M-416 -299L-442 -304" fill="none" stroke="#3b2718" stroke-width="64" stroke-linecap="butt" stroke-linejoin="round"/><circle cx="-442" cy="-304" r="32" fill="#3b2718"/></g></g><g transform="translate(215 826) rotate(8) scale(0.56896 0.56896)"><g data-anim="wiggle" data-tap="wiggle"><circle cx="115" cy="-146" r="30" fill="#ffffff"/><rect x="-158" y="-300" width="316" height="170" rx="50" fill="#35873f"/><ellipse cx="-70" cy="-34" rx="60" ry="34" fill="#9d95a8"/><ellipse cx="70" cy="-34" rx="60" ry="34" fill="#9d95a8"/><ellipse cx="0" cy="-176" rx="135" ry="160" fill="url(#nuniFur)"/><ellipse cx="0" cy="-146" rx="78" ry="100" fill="#ffffff"/><path d="M-74-300C-96-250-98-200-84-150M74-300C96-250 98-200 84-150" fill="none" stroke="#4fae5a" stroke-width="20" stroke-linecap="round" stroke-linejoin="round"/><g transform="translate(0 -940) scale(1 -1)"><path d="M-120-486C-180-456-200-316-180-176C-174-126-138-114-120-156C-94-226-84-366-70-466Z" fill="#b3acbc"/><path d="M-120-446C-148-406-158-316-148-226C-124-286-108-376-96-446Z" fill="#f7c9c4"/><g transform="scale(-1 1)"><path d="M-120-486C-180-456-200-316-180-176C-174-126-138-114-120-156C-94-226-84-366-70-466Z" fill="#b3acbc"/><path d="M-120-446C-148-406-158-316-148-226C-124-286-108-376-96-446Z" fill="#f7c9c4"/></g></g><ellipse cx="0" cy="-436" rx="135" ry="120" fill="url(#nuniFur)"/><path d="M-27-548C-20-575-2-584 7-559C18-582 36-575 31-546Z" fill="#b3acbc"/><ellipse cx="0" cy="-380" rx="68" ry="62" fill="#ffffff"/><path d="M-14-414L14-414L0-396Z" fill="#f08a9b"/><ellipse cx="0" cy="-358" rx="36" ry="38" fill="#6b2f3a"/><ellipse cx="0" cy="-336" rx="22" ry="13" fill="#f08a9b"/><rect x="-13" y="-396" width="26" height="20" rx="4" fill="#ffffff" stroke="#cfc8d8" stroke-width="2"/><ellipse cx="-82" cy="-398" rx="24" ry="15" fill="#f7b3b0" opacity="0.7"/><ellipse cx="82" cy="-398" rx="24" ry="15" fill="#f7b3b0" opacity="0.7"/><g data-anim="blink"><circle cx="-50" cy="-450" r="31" fill="#ffffff"/><circle cx="50" cy="-450" r="31" fill="#ffffff"/><circle cx="-50" cy="-450" r="10" fill="#2b1d14"/><circle cx="50" cy="-450" r="10" fill="#2b1d14"/><circle cx="-46" cy="-454" r="3" fill="#ffffff"/><circle cx="54" cy="-454" r="3" fill="#ffffff"/></g><path d="M-78-494L-28-514M28-514L78-494" fill="none" stroke="#6f6680" stroke-width="7" stroke-linecap="round" stroke-linejoin="round"/><path d="M-108-334C-40-300 40-300 108-334L94-292C40-272-40-272-94-292Z" fill="#f2c230"/><path d="M-14-288L26-288L8-226Z" fill="#d9a514"/><path d="M-100-222L-150 -330" fill="none" stroke="#b3acbc" stroke-width="66" stroke-linecap="round" stroke-linejoin="round"/><path d="M100-222L280 -250" fill="none" stroke="#b3acbc" stroke-width="66" stroke-linecap="round" stroke-linejoin="round"/></g></g><g transform="translate(440 836) rotate(2) scale(0.66 0.66)"><g data-anim="wiggle" data-tap="jump"><circle cx="-115" cy="-146" r="30" fill="#fffaf0"/><rect x="-158" y="-300" width="316" height="170" rx="50" fill="#b83d36"/><ellipse cx="-70" cy="-34" rx="60" ry="34" fill="#ecdcc0"/><ellipse cx="70" cy="-34" rx="60" ry="34" fill="#ecdcc0"/><ellipse cx="0" cy="-176" rx="135" ry="160" fill="url(#nanaFur)"/><ellipse cx="0" cy="-146" rx="78" ry="100" fill="#ffffff"/><path d="M-74-300C-96-250-98-200-84-150M74-300C96-250 98-200 84-150" fill="none" stroke="#e2574c" stroke-width="20" stroke-linecap="round" stroke-linejoin="round"/><g transform="translate(0 -940) scale(1 -1)"><path d="M-120-486C-180-456-200-316-180-176C-174-126-138-114-120-156C-94-226-84-366-70-466Z" fill="#f3e6cd"/><path d="M-148-266C-156-206-162-166-148-140C-132-146-120-186-114-246Z" fill="#d9a066"/><path d="M-120-446C-148-406-158-316-148-226C-124-286-108-376-96-446Z" fill="#f7c9c4"/><g transform="scale(-1 1)"><path d="M-120-486C-180-456-200-316-180-176C-174-126-138-114-120-156C-94-226-84-366-70-466Z" fill="#f3e6cd"/><path d="M-148-266C-156-206-162-166-148-140C-132-146-120-186-114-246Z" fill="#d9a066"/><path d="M-120-446C-148-406-158-316-148-226C-124-286-108-376-96-446Z" fill="#f7c9c4"/></g></g><ellipse cx="0" cy="-436" rx="135" ry="120" fill="url(#nanaFur)"/><ellipse cx="0" cy="-380" rx="68" ry="62" fill="#ffffff"/><path d="M-14-414L14-414L0-396Z" fill="#f08a9b"/><ellipse cx="0" cy="-358" rx="36" ry="38" fill="#6b2f3a"/><ellipse cx="0" cy="-336" rx="22" ry="13" fill="#f08a9b"/><rect x="-13" y="-396" width="26" height="20" rx="4" fill="#ffffff" stroke="#d8cbb5" stroke-width="2"/><ellipse cx="-82" cy="-398" rx="24" ry="15" fill="#f7b3b0" opacity="0.7"/><ellipse cx="82" cy="-398" rx="24" ry="15" fill="#f7b3b0" opacity="0.7"/><g data-anim="blink"><circle cx="-50" cy="-450" r="31" fill="#ffffff"/><circle cx="50" cy="-450" r="31" fill="#ffffff"/><circle cx="-50" cy="-450" r="10" fill="#2b1d14"/><circle cx="50" cy="-450" r="10" fill="#2b1d14"/><circle cx="-46" cy="-454" r="3" fill="#ffffff"/><circle cx="54" cy="-454" r="3" fill="#ffffff"/></g><path d="M-78-494L-28-514M28-514L78-494" fill="none" stroke="#b79a72" stroke-width="7" stroke-linecap="round" stroke-linejoin="round"/><path d="M-108-334C-40-300 40-300 108-334L94-292C40-272-40-272-94-292Z" fill="#2f80ed"/><path d="M-14-288L26-288L8-226Z" fill="#1c5fc0"/><path d="M-100-222L-250 -260" fill="none" stroke="#f3e6cd" stroke-width="66" stroke-linecap="round" stroke-linejoin="round"/><path d="M100-222L200 -330" fill="none" stroke="#f3e6cd" stroke-width="66" stroke-linecap="round" stroke-linejoin="round"/></g></g><g transform="translate(700 880)"><g data-anim="wiggle" data-tap="hide"><path d="M-18-8L-30 2M0-6L0 6M18-8L30 2" fill="none" stroke="#2b1d14" stroke-width="4" stroke-linecap="round" stroke-linejoin="round"/><ellipse cx="0" cy="-18" rx="26" ry="20" fill="#e2574c"/><path d="M0-36L0 0" fill="none" stroke="#2b1d14" stroke-width="3" stroke-linecap="round" stroke-linejoin="round"/><circle cx="-10" cy="-22" r="5" fill="#2b1d14"/><circle cx="10" cy="-14" r="5" fill="#2b1d14"/><circle cx="26" cy="-22" r="12" fill="#2b1d14"/><circle cx="30" cy="-26" r="4" fill="#ffffff"/><path d="M32-32L40-44M26-34L28-46" fill="none" stroke="#2b1d14" stroke-width="3" stroke-linecap="round" stroke-linejoin="round"/></g></g>
</svg>
